<?xml version="1.0" standalone="no"?>
<!DOCTYPE svg PUBLIC "-//W3C//DTD SVG 20010904//EN"
 "http://www.w3.org/TR/2001/REC-SVG-20010904/DTD/svg10.dtd">
<svg version="1.0" xmlns="http://www.w3.org/2000/svg"
 width="828.000000pt" height="828.000000pt" viewBox="0 0 828.000000 828.000000"
 preserveAspectRatio="xMidYMid meet">
<metadata>
Created by potrace 1.11, written by Peter Selinger 2001-2013
</metadata>
<g transform="translate(0.000000,828.000000) scale(0.100000,-0.100000)"
fill="#000000" stroke="none">
<path d="M4080 8224 c-271 -231 -679 -493 -1076 -693 -144 -71 -411 -191 -428
-191 -7 0 -16 -4 -21 -9 -6 -4 -23 -13 -40 -19 -16 -6 -93 -33 -169 -61 -287
-104 -668 -205 -926 -246 -19 -3 -46 -7 -60 -10 -14 -3 -38 -7 -55 -9 -16 -3
-52 -8 -80 -12 -27 -5 -57 -9 -65 -9 -14 -1 -121 -13 -185 -21 -30 -3 -188
-13 -320 -19 -38 -2 -77 -4 -86 -4 -8 -1 -15 -11 -16 -23 0 -13 -4 -95 -9
-183 -11 -209 -11 -1073 0 -1335 4 -113 9 -211 9 -217 1 -28 17 -9 66 77 29
50 54 90 56 90 1 0 14 -21 28 -47 79 -151 92 -168 122 -168 27 0 35 9 90 107
33 59 62 108 65 108 3 0 34 -49 69 -110 55 -97 66 -110 89 -110 24 0 34 12 79
93 83 148 70 146 143 18 56 -97 67 -111 90 -111 21 0 32 10 54 48 79 140 94
164 102 163 5 0 36 -48 69 -106 53 -92 63 -105 87 -105 23 0 34 13 89 110 35
61 66 110 69 110 3 0 32 -49 65 -108 56 -98 63 -107 90 -107 27 0 34 9 90 107
33 59 62 108 65 108 3 0 34 -49 69 -110 55 -97 66 -110 89 -110 24 0 34 12 79
93 84 149 70 147 143 18 57 -99 66 -111 91 -111 20 0 32 8 42 28 8 15 36 65
62 111 56 97 45 100 128 -46 45 -81 55 -93 79 -93 23 0 34 13 89 110 35 61 66
110 69 110 3 0 32 -49 65 -108 56 -98 63 -107 90 -107 27 0 34 9 90 107 33 59
62 108 65 108 3 0 34 -49 69 -110 55 -97 66 -110 89 -110 24 0 34 12 79 93 84
149 70 147 143 18 58 -101 66 -111 92 -111 18 0 31 6 35 18 6 15 110 191 119
201 1 2 12 -12 23 -30 l21 -34 0 1508 c0 829 -1 1507 -2 1506 -2 0 -32 -25
-68 -55z m-2892 -1707 l3 -27 1150 0 1149 0 0 24 c0 28 11 33 65 31 64 -4 65
-4 65 -21 0 -13 25 -15 198 -14 108 1 211 1 227 1 l31 -1 -2 -57 c-1 -32 -3
-64 -3 -71 -1 -9 -51 -12 -223 -11 -192 1 -222 -1 -230 -15 -7 -12 -25 -16
-70 -16 -55 0 -60 2 -55 20 3 11 0 23 -6 27 -8 5 -2181 9 -2279 4 -12 -1 -18
-9 -18 -26 0 -24 -3 -25 -60 -25 -47 0 -60 3 -60 15 0 16 1 16 -297 16 -90 0
-163 3 -164 7 -1 4 -2 35 -3 70 l-3 62 46 0 c25 1 130 1 234 1 174 0 187 1
187 18 0 16 8 18 58 16 54 -1 57 -3 60 -28z m2 -349 l0 -28 1149 0 1150 0 3
27 c3 26 5 27 65 28 34 0 61 -2 61 -5 -2 -27 9 -28 221 -28 120 0 223 -2 228
-5 8 -5 8 -32 4 -119 -1 -14 -13 -16 -78 -16 -333 0 -373 -2 -373 -17 0 -12
-14 -15 -64 -15 -63 0 -65 1 -68 27 l-3 27 -1135 1 c-624 0 -1141 -1 -1147 -3
-7 -2 -13 -15 -13 -28 0 -23 -3 -24 -59 -24 -47 0 -60 3 -63 16 -3 15 -28 17
-233 18 l-230 1 0 63 c-1 35 3 66 7 68 4 3 109 6 233 6 200 1 225 3 225 17 0
13 12 16 60 16 59 0 60 0 60 -27z m-2 -351 l3 -27 1150 0 1149 0 0 25 c0 19 5
25 23 26 99 4 102 4 101 -14 -2 -16 17 -17 230 -17 l231 0 -1 -62 c-1 -35 -2
-66 -3 -70 0 -5 -102 -8 -226 -8 -193 0 -225 -2 -225 -15 0 -12 -14 -15 -65
-15 -63 0 -65 1 -65 25 0 14 -6 25 -12 26 -7 0 -524 1 -1148 2 l-1135 0 -3
-26 c-3 -26 -6 -27 -63 -27 -46 0 -59 3 -59 15 0 13 -32 15 -230 15 -126 0
-231 3 -231 8 -1 4 -2 35 -3 70 l-2 62 234 0 c143 0 231 4 227 9 -9 16 22 27
73 26 44 0 47 -2 50 -28z"/>
<path d="M4302 5988 l3 -2273 1627 0 1627 0 7 40 c3 22 8 49 10 60 2 11 6 34
9 50 3 17 7 41 10 55 7 37 13 78 20 139 4 30 8 61 10 70 6 34 15 98 20 151 7
64 13 121 20 170 3 19 7 69 10 110 3 41 8 93 10 115 8 73 16 169 30 381 4 73
16 320 20 454 5 124 5 832 0 980 -7 243 -17 415 -24 423 -5 4 -48 10 -97 12
-134 6 -286 16 -314 20 -14 2 -56 7 -95 11 -38 3 -77 7 -85 9 -96 13 -128 18
-145 21 -10 2 -37 6 -60 10 -33 4 -220 42 -300 60 -11 3 -31 7 -44 10 -61 13
-259 69 -386 111 -329 107 -684 263 -959 422 -49 28 -93 51 -97 51 -5 0 -9 5
-9 10 0 6 -5 10 -10 10 -19 0 -277 167 -429 277 -22 16 -111 85 -166 130 -53
43 -161 139 -168 150 -4 7 -17 17 -27 23 -20 11 -20 -8 -18 -2262z m600 846
c18 -9 70 -41 116 -71 46 -31 84 -53 86 -52 1 2 7 16 14 32 16 37 34 34 74
-10 18 -21 69 -72 113 -113 43 -41 106 -102 139 -135 33 -33 63 -59 67 -58 4
2 6 -7 4 -19 -6 -30 20 -67 42 -62 10 2 63 -18 118 -45 93 -47 102 -49 122
-35 31 19 29 55 -3 85 l-27 24 13 -24 c10 -19 10 -22 -2 -15 -27 16 -134 99
-171 134 -49 44 -64 53 -72 40 -3 -5 17 -34 44 -63 54 -57 62 -70 34 -60 -24
9 -88 53 -78 53 4 0 -5 11 -21 25 -68 58 -67 55 -61 98 3 23 15 49 28 61 21
20 22 20 14 1 -4 -11 -10 -28 -12 -37 -6 -21 22 -68 40 -68 8 0 7 4 -3 10 -13
9 -12 13 9 30 32 27 70 25 111 -5 39 -29 59 -60 60 -92 0 -12 13 -31 30 -43
29 -21 32 -21 70 -6 38 15 41 15 52 -4 13 -20 38 -27 38 -11 0 26 -149 151
-180 151 -15 0 -70 51 -65 60 8 12 57 -4 123 -41 31 -18 89 -49 127 -70 39
-21 64 -39 58 -39 -20 0 -15 -22 13 -64 l27 -39 -27 5 -27 5 20 -21 c12 -12
21 -35 21 -51 0 -16 5 -43 12 -62 13 -37 6 -52 -17 -33 -23 19 -19 -5 7 -40
15 -21 23 -49 26 -92 3 -43 7 -57 12 -43 5 11 6 45 4 75 -13 168 -15 209 -14
253 0 34 -5 56 -19 73 -18 24 -19 26 -3 54 9 15 20 26 24 24 12 -8 10 -48 -4
-62 -8 -8 -8 -15 3 -28 12 -15 15 -14 31 6 14 17 15 25 5 47 -10 22 -8 28 12
44 13 11 32 19 42 19 10 0 63 27 118 59 129 76 154 84 244 76 85 -8 130 -27
146 -61 21 -47 14 -76 -31 -117 -36 -33 -40 -40 -26 -48 13 -7 30 4 80 53 35
35 100 97 144 138 44 41 94 92 112 113 26 32 34 36 50 28 11 -6 22 -22 26 -35
l6 -25 76 50 c42 28 96 61 121 75 122 64 225 -11 178 -129 -5 -11 -1 -25 9
-36 31 -34 24 -238 -9 -318 -15 -34 -14 -38 6 -59 32 -34 36 -95 10 -137 -25
-41 -91 -103 -127 -119 -31 -14 -31 -23 1 -26 65 -5 136 -67 134 -116 -1 -24
-3 -26 -6 -8 -7 35 -66 74 -121 78 l-47 3 45 -10 c110 -25 93 -93 -38 -155
-68 -33 -172 -40 -262 -19 -59 15 -133 54 -102 55 7 0 39 12 70 27 51 24 68
26 155 25 67 -1 107 2 124 12 24 12 18 13 -68 11 -102 -2 -137 6 -165 36 -18
20 -18 20 108 17 112 -3 152 3 94 14 -16 2 -11 9 24 32 86 57 170 164 170 216
0 12 -13 35 -30 51 l-29 30 19 32 c11 18 22 50 24 72 22 169 18 245 -11 245
-16 0 -16 -1 2 90 10 54 -18 85 -78 84 -36 -1 -60 -11 -121 -50 -138 -88 -181
-114 -188 -114 -5 0 -8 15 -8 33 0 19 -3 37 -6 40 -4 4 -25 -15 -48 -41 -53
-60 -84 -91 -180 -176 -97 -86 -125 -128 -141 -213 -12 -63 -12 -213 -1 -258
26 -100 26 -99 2 -143 -18 -36 -74 -66 -100 -56 -14 5 -13 10 4 34 26 37 25
65 -2 84 -26 18 -52 21 -43 5 13 -20 -24 -48 -52 -40 -42 11 -51 36 -22 60
l24 21 -33 27 c-39 33 -40 43 -7 43 13 0 35 5 49 12 20 9 23 14 15 25 -6 7
-17 13 -24 13 -21 0 -47 37 -40 57 8 25 101 94 142 106 50 15 83 50 83 87 0
37 -8 37 -67 5 -25 -14 -47 -24 -50 -22 -2 3 19 28 46 56 50 51 61 71 40 71
-9 0 -72 -49 -133 -102 -36 -33 -96 -71 -102 -65 -3 3 23 28 58 56 73 58 132
110 103 90 -11 -8 -22 -16 -25 -19 -3 -3 -26 -18 -51 -33 -52 -30 -101 -77
-105 -101 -3 -22 33 -45 61 -40 12 2 64 24 116 48 51 25 95 43 98 41 8 -9 -19
-31 -56 -44 -90 -33 -173 -104 -173 -150 0 -20 9 -37 28 -52 l27 -22 -25 5
c-14 3 -33 9 -43 13 -17 7 -18 4 -11 -31 8 -44 20 -64 40 -64 8 0 14 -4 14 -8
0 -18 -14 -21 -41 -6 -46 23 -37 -6 15 -54 57 -53 89 -62 120 -33 26 25 36 26
36 7 0 -21 -40 -46 -73 -46 l-29 0 31 -29 c17 -16 31 -38 31 -50 0 -27 -8 -26
-37 1 -32 30 -36 20 -13 -38 10 -27 20 -42 20 -34 1 8 8 -7 15 -35 7 -27 16
-59 20 -70 5 -15 -3 -31 -29 -59 -39 -41 -41 -47 -25 -63 8 -8 19 -2 41 23 17
19 39 34 49 34 34 0 21 -27 -28 -55 -17 -10 -37 -29 -44 -41 -6 -13 -16 -21
-21 -18 -4 3 -6 9 -3 14 3 5 1 11 -5 15 -6 4 -10 -6 -10 -22 0 -16 -5 -34 -12
-41 -9 -9 -8 -12 6 -12 26 0 16 -34 -12 -38 -19 -3 -22 1 -22 31 0 19 7 54 15
78 9 23 12 40 9 36 -4 -4 -13 -2 -21 5 -19 15 -25 5 -15 -23 5 -13 6 -32 3
-42 -6 -16 -9 -15 -30 8 -30 36 -37 25 -13 -22 10 -21 36 -72 56 -114 20 -41
43 -84 51 -95 14 -16 14 -14 0 14 -9 19 -14 37 -10 40 7 7 17 -4 102 -104 54
-63 55 -45 1 35 -38 57 -40 63 -25 78 15 15 19 14 50 -19 44 -47 92 -158 83
-192 -14 -55 -73 -19 -164 99 -31 39 -16 11 21 -40 15 -22 44 -63 63 -92 38
-58 74 -97 98 -106 26 -10 19 -30 -10 -24 -18 3 -30 -2 -42 -19 l-17 -23 -42
42 c-54 52 -57 31 -4 -26 40 -42 40 -42 68 -25 28 16 29 16 68 -14 127 -97
205 -139 302 -164 53 -13 98 -26 101 -28 2 -3 -3 -15 -12 -28 -9 -12 -16 -30
-16 -40 0 -26 -25 -22 -40 7 -8 15 -20 23 -27 21 -7 -3 -34 -3 -58 1 -38 5
-49 12 -68 42 -19 32 -22 34 -25 14 -2 -12 8 -44 22 -72 14 -28 26 -53 26 -56
0 -3 -11 -5 -25 -5 -24 0 -25 -1 -10 -23 10 -16 13 -35 9 -56 -9 -46 -21 -46
-22 -1 -2 48 -20 80 -44 80 -15 0 -18 9 -18 48 0 65 -11 80 -49 66 -16 -6 -57
-11 -90 -11 -34 0 -67 -5 -73 -11 -18 -18 -28 -14 -28 12 0 41 -24 51 -65 26
-38 -24 -38 -30 9 -72 19 -18 19 -18 -1 -18 -22 0 -70 43 -84 75 -9 19 -7 2 7
-57 11 -46 33 -155 50 -243 19 -99 4 -309 -23 -336 -7 -7 -7 3 2 26 16 48 19
211 5 290 -6 33 -13 74 -16 90 -14 81 -66 277 -87 331 -33 82 -50 158 -42 183
8 26 33 27 51 4 12 -16 13 -16 14 -2 0 9 -7 22 -16 30 -10 8 -13 21 -9 36 4
18 2 23 -9 21 -8 -2 -28 13 -45 32 -39 47 -48 33 -17 -26 14 -26 23 -51 19
-57 -8 -13 -58 89 -79 158 -20 71 -22 81 -24 125 -2 40 -2 39 -35 -70 -22 -74
-39 -97 -60 -80 -20 17 -42 63 -58 127 l-13 52 -12 -79 c-13 -80 -28 -127 -62
-190 -10 -20 -18 -55 -18 -81 0 -27 -17 -95 -41 -168 -116 -344 -149 -681 -75
-762 18 -21 18 -21 -8 -8 -40 18 -60 78 -63 189 -2 52 1 118 5 145 5 28 12 68
15 90 6 34 27 131 51 225 5 22 4 21 -14 -7 -30 -46 -74 -69 -99 -50 -7 5 -16
6 -20 4 -5 -3 -44 1 -88 9 -109 19 -104 20 -98 -25 5 -37 3 -41 -35 -68 -46
-31 -49 -39 -26 -64 21 -23 12 -46 -21 -59 -70 -27 -93 -8 -131 105 -14 44
-28 82 -29 83 -2 2 -21 -8 -42 -22 -44 -30 -60 -32 -93 -9 -21 15 -23 15 -17
0 3 -9 -2 -26 -12 -38 -20 -25 -45 -21 -85 16 -50 47 -25 144 47 178 19 9 41
17 49 17 7 1 2 7 -12 15 -22 12 -27 11 -43 -6 -23 -25 -33 -24 -62 6 -33 32
-34 83 -1 114 27 25 103 51 151 51 27 0 73 -25 95 -50 15 -18 77 -56 88 -54 6
1 20 2 30 3 9 1 45 19 80 41 57 36 62 42 48 56 -9 8 -16 26 -16 39 0 22 16 33
78 50 l23 7 -26 30 c-14 16 -25 38 -25 49 0 10 -2 19 -4 19 -3 0 -32 -18 -66
-41 -97 -64 -155 -78 -222 -51 -51 21 -62 80 -29 146 11 21 15 35 8 32 -217
-94 -278 -98 -321 -25 -34 57 -1 124 118 238 36 34 66 64 66 65 0 0 -39 0 -87
0 -141 -2 -188 22 -188 96 0 46 29 81 114 137 l54 36 -47 24 c-71 36 -136 103
-136 140 0 53 71 110 143 115 20 1 33 6 31 10 -3 4 -9 8 -15 8 -20 0 -108 72
-134 110 -32 47 -37 103 -11 143 10 15 22 27 26 27 4 0 -2 26 -13 58 -12 36
-21 96 -24 163 -6 105 -5 106 21 126 25 20 25 22 12 59 -19 54 -12 95 20 123
24 20 35 22 75 18 27 -3 63 -14 81 -23z m2388 -65 c0 -48 -29 -98 -102 -175
-82 -86 -185 -145 -306 -174 -28 -7 -35 -5 -48 15 -8 12 -12 29 -9 38 4 8 47
37 97 63 115 61 236 142 256 172 16 24 11 29 -10 9 -21 -21 -219 -141 -272
-166 -74 -34 -72 -21 9 46 54 44 294 200 329 213 32 12 56 -6 56 -41z m-397
-132 c-11 -21 -92 -105 -137 -145 l-38 -33 36 6 c32 6 36 5 36 -13 0 -11 -12
-30 -27 -42 l-28 -22 34 5 c46 8 71 -7 71 -41 -1 -47 -57 -96 -98 -85 -23 6
-24 8 -27 58 -4 50 -4 53 -21 59 -12 5 -14 1 -9 -15 4 -11 1 -26 -5 -34 -9
-11 -10 -19 -1 -28 6 -8 9 -16 6 -19 -3 -2 6 -15 20 -28 29 -27 32 -55 8 -69
-17 -9 -17 -11 -1 -27 21 -22 35 -12 50 38 9 32 20 44 46 55 73 31 85 -13 15
-53 -61 -35 -60 -34 -44 -44 9 -5 23 -2 38 7 19 13 28 13 53 3 29 -12 29 -13
15 -41 -18 -34 -47 -51 -72 -42 -10 4 -40 19 -66 35 -56 32 -58 33 -50 13 3
-9 21 -22 39 -30 38 -16 46 -47 17 -64 -16 -9 -14 -10 8 -11 15 0 32 7 39 15
18 21 49 15 68 -13 14 -21 13 -22 -17 -28 -30 -6 -57 -27 -30 -23 35 4 60 -3
79 -23 26 -28 25 -34 -4 -53 -47 -31 -83 -35 -111 -13 -14 11 -25 28 -24 37 4
26 -11 63 -44 104 -38 48 -46 41 -13 -11 14 -22 28 -53 32 -68 l7 -28 -31 23
c-18 12 -32 19 -32 16 0 -17 35 -63 61 -81 42 -28 44 -44 7 -77 -42 -39 -21
-48 26 -12 38 29 54 26 90 -14 22 -24 12 -42 -35 -67 -49 -25 -99 -18 -153 21
-47 33 -106 51 -78 23 23 -23 14 -38 -18 -31 -29 5 -44 -11 -18 -19 6 -2 8
-10 4 -16 -5 -9 -13 -9 -27 -2 -15 9 -19 7 -19 -5 0 -20 -29 -19 -37 1 -6 15
-8 15 -20 -2 -7 -10 -13 -14 -13 -8 -1 5 -2 39 -3 76 l-2 66 37 5 c20 3 51 15
68 27 54 38 61 83 34 210 -30 142 -8 269 63 361 20 27 40 49 43 49 3 0 50 42
105 94 95 89 117 106 98 73z m425 -9 c7 -7 12 -25 12 -40 0 -67 -51 -133 -155
-203 -82 -55 -100 -63 -175 -79 -90 -18 -125 -16 -125 8 0 20 13 28 195 115
113 53 213 121 200 134 -3 3 -41 -19 -85 -49 -77 -51 -270 -143 -280 -132 -3
3 37 24 88 47 116 52 162 83 238 155 62 60 68 63 87 44z m-1582 -133 c4 -8 12
-15 20 -15 17 0 18 -16 2 -26 -11 -7 -48 29 -48 47 0 15 20 10 26 -6z m1559
-102 c-9 -21 -26 -48 -38 -61 -30 -32 -125 -84 -225 -123 -69 -27 -86 -30
-107 -21 -53 24 -14 71 73 87 72 12 254 107 276 144 4 6 14 11 22 11 12 0 12
-5 -1 -37z m32 -151 c10 -12 8 -22 -7 -52 -29 -57 -109 -106 -225 -141 -41
-12 -51 -18 -33 -18 47 -2 40 -19 -12 -30 -72 -15 -104 -14 -123 7 -18 20 -33
72 -21 73 78 4 184 35 291 84 48 22 76 45 55 45 -5 0 -38 -13 -73 -29 -85 -38
-186 -71 -218 -70 l-26 0 25 20 c23 18 206 103 290 134 36 14 49 10 77 -23z
m-277 -497 c81 -14 256 -143 248 -183 -2 -9 -14 -22 -28 -29 -46 -24 -232 -7
-351 32 -44 15 -129 77 -129 95 0 4 17 12 38 17 29 8 56 4 126 -14 48 -14 90
-22 93 -20 2 3 -6 8 -19 12 -109 31 -148 61 -117 92 11 11 72 10 139 -2z
m-366 -31 c31 -28 27 -37 -21 -50 -49 -13 -71 22 -35 57 22 23 22 23 56 -7z
m566 -20 c75 -48 98 -75 105 -120 l6 -39 -14 31 c-13 26 -73 83 -102 95 -33
14 -84 52 -79 60 9 16 28 10 84 -27z m-485 -59 c73 -74 -38 -137 -114 -65 -28
28 -33 36 -30 58 1 7 70 28 101 31 9 0 29 -10 43 -24z m-179 -10 c12 -30 -5
-65 -30 -65 -25 0 -66 41 -66 66 0 20 89 19 96 -1z m316 -101 c155 -90 318
-251 318 -315 0 -22 -53 -43 -87 -34 -65 16 -311 133 -395 188 -48 32 -49 33
-42 72 4 22 7 46 7 53 0 21 15 14 118 -54 55 -36 102 -64 104 -62 3 2 -34 32
-82 67 l-86 63 29 28 c16 15 34 28 41 29 7 1 40 -15 75 -35z m-248 -5 c33 -38
34 -72 3 -86 -32 -15 -77 6 -112 51 -30 39 -27 51 15 59 55 10 69 6 94 -24z
m-154 -54 c19 -20 22 -30 14 -43 -15 -23 -60 -27 -90 -8 l-24 16 33 30 c17 16
35 30 38 30 3 0 16 -11 29 -25z m663 9 c108 -9 115 -18 10 -12 -46 3 -83 1
-83 -2 0 -4 34 -42 76 -85 41 -42 74 -79 71 -81 -2 -2 -45 36 -95 85 -86 83
-113 121 -76 107 8 -3 52 -9 97 -12z m-478 -108 c100 -67 218 -204 230 -265 6
-33 -32 -63 -70 -55 -78 16 -244 150 -316 255 -38 57 -39 58 -18 69 27 15 42
4 152 -105 48 -48 87 -83 87 -76 0 6 -40 54 -90 105 -49 52 -90 97 -90 100 0
4 15 6 33 6 20 0 51 -13 82 -34z m-248 2 c13 -12 23 -27 23 -34 0 -15 -27 -25
-55 -19 -11 2 -29 4 -40 5 -18 1 -17 3 8 21 15 11 27 27 27 35 0 20 10 18 37
-8z m833 -132 c0 -12 -5 -7 -19 24 -11 24 -11 24 3 6 9 -11 16 -24 16 -30z
m-298 -39 c100 -47 181 -70 230 -65 34 3 37 2 22 -9 -10 -7 -32 -13 -49 -13
-32 0 -172 36 -190 49 -5 4 -23 13 -38 19 l-29 12 21 -33 c37 -60 23 -52 -19
11 -39 57 -48 78 -32 69 4 -3 41 -21 84 -40z m-972 -137 c7 -25 14 -65 17 -90
8 -76 20 -65 27 26 4 48 14 101 23 118 l15 30 18 -36 c9 -19 29 -51 43 -70 27
-35 34 -58 19 -58 -5 0 -15 11 -22 25 -7 14 -17 25 -22 25 -5 0 -6 -4 -3 -10
3 -5 8 -23 10 -40 3 -27 1 -30 -11 -19 -8 6 -18 9 -21 5 -4 -4 -2 -11 6 -15
17 -11 14 -21 -10 -47 -11 -12 -21 -31 -22 -43 -1 -13 -8 -21 -18 -21 -16 0
-16 -2 -2 -30 19 -39 11 -60 -22 -60 -33 0 -43 26 -22 62 15 27 15 28 -3 28
-13 0 -20 7 -20 18 0 11 -9 29 -19 41 -12 14 -17 30 -13 44 5 20 4 20 -11 8
-19 -15 -21 -9 -8 37 11 37 0 42 -22 10 -8 -13 -18 -20 -21 -17 -8 7 14 59 24
59 3 0 16 18 29 40 12 22 19 40 16 40 -3 0 -3 5 0 11 10 15 29 -16 45 -71z
m683 28 c44 -39 142 -82 188 -82 26 -1 42 -4 36 -8 -22 -14 -102 -7 -146 12
-69 32 -141 89 -141 112 0 23 -4 25 63 -34z m-94 -79 c-13 -8 -11 -9 66 -39
14 -5 25 -17 25 -26 0 -12 -4 -14 -12 -7 -7 6 -24 13 -38 16 -14 4 -40 19 -58
34 l-34 28 32 1 c19 1 27 -2 19 -7z m513 -126 c51 -15 79 -44 77 -78 -1 -14
-3 -15 -6 -4 -9 35 -132 73 -179 55 -16 -6 -16 -8 -1 -19 9 -6 19 -24 22 -38
6 -24 4 -26 -17 -22 -16 3 -36 -5 -60 -25 -27 -21 -45 -28 -63 -25 -29 6 -31
11 -10 27 12 9 6 11 -28 12 -43 1 -115 35 -177 83 -35 28 -18 38 22 13 122
-77 151 -78 229 -8 66 59 86 62 191 29z m-881 -68 c31 -90 87 -319 103 -425 7
-52 13 -138 11 -190 -4 -150 -34 -199 -76 -121 -15 28 -17 47 -11 110 8 97 8
270 0 341 -5 45 -42 240 -64 340 -10 45 15 8 37 -55z m-347 -7 c-8 -40 -16
-82 -18 -93 -16 -76 -25 -128 -31 -180 -4 -33 -9 -68 -11 -78 -7 -37 -6 -193
1 -273 6 -70 5 -86 -11 -113 -34 -58 -55 -46 -69 39 -8 47 -9 194 -1 245 11
77 52 242 88 360 22 72 42 138 45 148 3 9 9 17 13 17 4 0 1 -33 -6 -72z m285
35 c5 -21 12 -54 15 -73 3 -19 10 -57 15 -85 5 -27 12 -68 15 -90 4 -23 8 -50
10 -60 28 -146 23 -306 -15 -447 -49 -180 -91 -103 -65 117 4 39 9 86 11 105
2 19 7 64 11 100 4 36 7 85 7 110 1 51 -13 202 -19 211 -3 6 -7 99 -5 132 2
28 9 20 20 -20z m-233 -45 c-4 -40 -10 -98 -13 -128 -12 -108 -3 -405 13 -431
2 -4 7 -54 10 -111 5 -81 3 -107 -9 -122 -19 -26 -32 -15 -52 44 -39 117 -56
338 -35 437 5 21 11 56 14 78 10 67 35 188 45 223 11 38 11 36 11 62 0 11 5
20 11 20 8 0 10 -21 5 -72z m1173 34 c37 -18 52 -42 27 -42 -9 0 -16 4 -16 10
0 5 -12 13 -27 16 -16 4 -37 13 -48 20 -19 13 -19 14 5 14 14 -1 40 -9 59 -18z
m-984 -99 c4 -38 9 -77 11 -88 11 -55 7 -204 -12 -390 -13 -127 -52 -245 -82
-245 -27 0 -73 142 -87 270 -23 213 -23 328 0 445 2 11 4 30 4 43 1 30 21 28
21 -2 0 -14 9 -31 21 -39 19 -14 20 -25 23 -291 2 -194 6 -280 14 -288 15 -15
14 -36 17 294 2 264 3 268 25 286 13 11 23 30 23 49 3 52 14 28 22 -44z m1009
-11 c-24 -5 -56 32 -41 47 9 9 17 5 34 -16 20 -24 21 -29 7 -31z m-53 -6 c19
-8 41 -23 50 -33 22 -25 42 -79 36 -95 -3 -7 -6 -3 -6 9 -1 13 -14 37 -29 54
-25 28 -35 32 -102 37 -73 5 -74 5 -51 23 28 23 57 24 102 5z m23 -78 c9 -12
16 -36 15 -53 l-1 -30 -10 28 c-5 15 -13 27 -18 27 -14 0 -41 31 -35 41 10 16
33 10 49 -13z m-624 -30 c0 -15 -28 -8 -34 8 -10 25 4 37 20 17 7 -10 14 -21
14 -25z m218 -20 c0 -30 4 -54 10 -56 23 -7 62 -44 62 -58 0 -8 -7 -25 -16
-38 -15 -23 -14 -24 16 -31 17 -4 36 -3 43 2 7 4 5 0 -5 -9 -17 -16 -43 -16
-90 -2 -19 6 -25 49 -8 59 12 8 13 45 1 45 -4 0 -20 11 -35 25 -42 39 -31 110
16 114 4 1 7 -22 6 -51z m267 -17 c37 -20 49 -31 39 -35 -12 -5 -114 41 -133
59 -16 17 49 0 94 -24z m129 -29 c1 -33 -3 -42 -16 -42 -33 0 -44 62 -14 82
21 14 30 2 30 -40z m-217 6 c-3 -8 -6 -5 -6 6 -1 11 2 17 5 13 3 -3 4 -12 1
-19z m-1017 -516 c0 -10 7 -28 16 -40 8 -12 11 -22 6 -22 -14 0 -49 63 -44 78
5 17 22 5 22 -16z m430 -21 c10 -9 4 -7 -18 3 -19 10 -30 21 -26 28 5 8 10 7
18 -3 7 -8 18 -20 26 -28z m-152 -32 c13 -16 21 -29 17 -29 -15 0 -55 34 -55
46 0 21 13 16 38 -17z"/>
<path d="M4771 6827 c-41 -20 -47 -99 -10 -143 7 -8 10 -16 8 -17 -2 -2 -17
-11 -33 -21 l-28 -18 5 -91 c7 -118 14 -153 37 -199 19 -36 19 -37 1 -43 -11
-3 -26 -21 -35 -40 -15 -31 -15 -38 -2 -67 25 -56 77 -100 185 -160 43 -24 39
-38 -10 -38 -83 0 -179 -50 -179 -93 0 -28 51 -76 118 -114 102 -55 101 -50
15 -102 -82 -49 -124 -97 -118 -134 6 -29 41 -57 74 -58 58 -3 157 2 193 10
27 6 38 6 38 -3 0 -6 -37 -47 -81 -91 -131 -129 -165 -198 -118 -241 41 -37
133 -19 298 57 35 16 66 28 68 25 2 -2 -14 -31 -37 -65 -72 -105 -55 -156 53
-156 55 1 69 5 122 39 33 21 78 53 100 70 21 17 36 25 31 18 -12 -20 -10 -91
4 -107 7 -8 27 -15 44 -15 l31 0 -29 -25 c-15 -13 -45 -29 -65 -36 -53 -17
-58 -25 -30 -55 l24 -26 -30 -24 c-54 -44 -132 -84 -164 -84 -39 0 -64 13
-112 55 -48 43 -85 50 -154 30 -65 -19 -91 -48 -76 -88 14 -37 27 -40 50 -11
19 24 22 25 36 10 9 -9 36 -21 60 -27 24 -6 50 -18 59 -28 13 -15 9 -16 -44
-18 -69 -2 -114 -23 -135 -63 -21 -40 -19 -64 8 -96 30 -35 56 -28 49 14 -6
41 13 48 49 17 29 -24 33 -25 53 -10 52 38 123 58 113 32 -5 -14 9 -46 15 -37
2 3 16 31 32 62 32 64 27 97 -7 46 -23 -33 -81 -54 -120 -44 -12 3 -29 -7 -47
-27 -20 -21 -30 -27 -30 -17 -3 32 -9 53 -19 63 -19 19 -12 25 47 37 31 7 77
18 101 26 45 14 224 129 255 163 17 18 56 18 56 0 0 -5 9 -9 19 -9 18 0 91 74
91 91 0 20 -30 -6 -46 -39 -16 -33 -17 -34 -30 -17 -8 11 -26 19 -41 20 -37 0
-39 20 -4 35 75 30 249 279 316 449 25 65 25 67 -7 50 -20 -11 -20 -9 -14 34
6 42 5 45 -12 40 -18 -4 -19 -1 -11 39 13 66 12 95 -3 80 -22 -22 -26 -12 -12
33 14 49 13 53 -10 29 -15 -14 -16 -12 -16 20 0 19 5 47 12 61 13 29 2 49 -13
22 -11 -18 -39 -24 -39 -7 0 6 11 22 25 36 14 14 25 26 25 27 0 1 -11 3 -25 3
-32 2 -75 30 -75 49 0 21 12 19 33 -5 9 -11 28 -20 41 -20 32 0 126 75 126
100 0 19 -2 19 -23 5 -13 -8 -27 -12 -30 -8 -4 3 -17 -4 -28 -16 -20 -21 -22
-21 -39 -6 -16 15 -19 15 -22 1 -2 -11 -7 -13 -18 -6 -12 7 -11 14 5 46 20 37
51 61 39 31 -7 -20 29 -39 60 -31 26 6 46 41 46 79 0 31 -10 31 -39 1 -31 -32
-51 -36 -92 -17 -41 20 -50 54 -19 71 12 6 24 9 28 6 3 -3 0 -6 -6 -6 -22 0
-12 -20 16 -33 15 -6 29 -14 32 -18 3 -3 14 -3 25 2 11 4 14 8 7 8 -10 1 -10
5 2 17 18 18 21 56 6 84 -10 19 -101 90 -115 90 -5 0 13 -16 38 -36 51 -40 60
-71 28 -91 -16 -10 -18 -9 -14 6 7 26 -76 92 -150 120 l-24 9 2 -81 c2 -45 -2
-109 -8 -142 -18 -107 -15 -142 17 -173 24 -22 27 -23 22 -7 -9 23 -9 24 -7
48 1 20 36 57 53 57 6 0 2 -9 -10 -20 -27 -26 -27 -34 -1 -72 15 -20 18 -33
11 -40 -18 -18 -84 22 -107 64 -18 35 -19 39 -3 104 36 149 10 343 -54 413
-18 19 -36 38 -39 41 -3 3 -28 23 -54 45 -59 49 -111 100 -164 162 -22 26 -42
45 -45 42 -3 -2 -7 -17 -10 -33 -3 -16 -7 -31 -10 -33 -7 -7 -84 38 -163 94
-84 59 -151 81 -192 60z m167 -81 c108 -65 263 -174 277 -196 4 -6 5 -13 2
-16 -8 -8 -173 84 -253 141 -82 58 -116 73 -68 28 24 -22 100 -73 209 -140 38
-24 122 -63 134 -63 14 0 7 -32 -15 -67 -18 -29 -21 -29 -106 7 -160 68 -250
142 -315 258 -30 54 -34 67 -24 88 6 14 19 24 31 24 11 0 68 -29 128 -64z
m283 -133 c25 -27 75 -74 111 -106 84 -73 116 -121 138 -199 23 -85 24 -169 5
-253 -22 -92 -21 -139 4 -174 27 -37 82 -63 120 -56 30 5 42 -7 21 -20 -6 -4
-8 -27 -5 -55 3 -29 1 -51 -5 -55 -5 -3 -10 2 -10 11 0 15 -4 14 -25 -6 -21
-19 -25 -21 -25 -7 0 11 -7 16 -22 14 -19 -2 -22 2 -20 22 2 15 0 21 -8 16 -6
-4 -18 -4 -26 -1 -12 4 -13 10 -4 26 7 12 7 20 1 20 -14 0 -80 -39 -120 -71
-27 -22 -43 -27 -76 -25 -90 5 -123 61 -58 99 32 18 32 18 70 -7 21 -14 49
-26 62 -26 22 0 19 4 -21 29 -25 16 -49 35 -53 41 -5 8 10 30 44 60 47 44 63
70 43 70 -4 0 -13 -5 -19 -11 -28 -28 -29 1 -2 61 29 63 29 64 6 41 -24 -21
-45 -64 -63 -126 -5 -16 -20 -35 -32 -41 -44 -22 -131 22 -117 59 7 17 49 37
83 40 25 1 17 13 -13 19 -25 4 -26 37 -3 52 13 8 25 6 47 -7 16 -9 37 -17 47
-17 16 0 16 2 -3 15 -29 20 -20 42 23 60 25 10 34 20 34 37 -1 20 -2 21 -13 7
-19 -24 -101 -61 -127 -57 -14 2 -32 16 -43 35 l-19 33 27 12 c22 10 32 9 54
-3 27 -16 51 -15 51 1 0 5 -20 18 -44 29 -79 34 -79 80 0 59 25 -6 35 -18 53
-60 20 -48 23 -51 38 -35 16 15 15 18 -2 37 -18 20 -14 34 21 65 17 15 26 63
13 70 -6 4 -8 18 -5 31 5 18 3 22 -9 18 -17 -7 -18 -11 -15 -71 1 -38 -1 -43
-24 -49 -54 -13 -116 59 -92 107 12 25 30 28 76 15 21 -6 20 -4 -7 14 -49 32
-40 73 12 60 50 -12 51 -12 25 8 -62 49 -170 165 -170 182 0 22 28 7 71 -37z
m-353 -58 c48 -36 138 -90 200 -120 61 -30 112 -57 112 -59 0 -17 -243 96
-319 148 -30 20 -56 34 -59 32 -6 -6 59 -66 73 -66 5 0 21 -9 35 -20 14 -11
82 -45 152 -76 156 -69 179 -99 75 -97 -84 1 -246 73 -320 142 -37 34 -77 112
-77 151 0 47 30 39 128 -35z m67 -231 c39 -17 99 -39 135 -48 41 -10 72 -24
83 -38 18 -22 18 -23 -2 -39 -25 -21 -32 -19 -181 39 -110 44 -170 84 -195
132 -30 58 -19 65 38 24 28 -21 84 -52 122 -70z m-79 -69 c95 -44 158 -71 194
-85 19 -8 45 -20 58 -29 20 -12 21 -16 8 -23 -18 -10 -132 26 -232 72 -71 34
-74 34 -74 19 0 -27 253 -119 327 -119 38 0 42 -14 18 -60 -10 -19 -24 -30
-38 -31 -52 -3 -96 2 -133 15 -38 14 -38 15 -9 15 39 1 22 14 -46 34 -146 44
-246 176 -159 210 24 9 29 8 86 -18z m801 -251 c-3 -3 -12 -4 -19 -1 -8 3 -5
6 6 6 11 1 17 -2 13 -5z m-538 -40 c-28 -34 -64 -43 -163 -41 -79 2 -93 0 -79
-10 20 -15 32 -16 138 -13 66 1 88 -2 135 -23 30 -14 64 -28 75 -32 17 -6 15
-9 -20 -27 -50 -26 -163 -46 -242 -43 -99 5 -219 84 -211 139 4 31 51 48 142
54 45 2 82 5 83 6 1 0 36 2 78 4 69 2 76 0 64 -14z m37 -229 c19 -26 6 -37
-79 -65 -91 -29 -78 -38 15 -10 82 25 125 28 158 10 l22 -12 -23 -24 c-53 -56
-121 -83 -271 -107 -157 -25 -232 -5 -209 55 10 28 17 33 126 105 102 67 230
91 261 48z m304 5 c10 -12 16 -29 13 -40 -6 -23 -2 -23 -59 -9 l-45 12 27 28
c33 34 41 35 64 9z m206 -28 c1 -18 10 -56 20 -85 18 -52 24 -140 11 -153 -4
-4 -16 5 -28 20 -11 14 -34 33 -50 41 -17 9 -29 24 -29 35 0 29 15 25 54 -15
40 -40 46 -42 46 -17 0 10 -13 28 -30 40 -43 32 -52 53 -34 86 8 16 14 42 14
58 0 40 23 31 26 -10z m-223 -48 c24 -7 21 -26 -8 -58 -46 -50 -135 -69 -159
-34 -22 31 5 73 64 100 14 7 65 3 103 -8z m147 -11 c0 -20 -42 -73 -57 -73
-35 0 -47 18 -44 63 1 14 10 17 51 17 28 0 50 -3 50 -7z m-307 -136 c-3 -4
-38 -33 -78 -63 -130 -96 -100 -92 45 5 41 28 80 51 86 51 6 0 17 -19 24 -42
l12 -43 -53 -48 c-57 -50 -241 -147 -356 -186 -100 -33 -141 -4 -104 73 30 62
198 216 306 281 l57 34 33 -26 c19 -15 31 -31 28 -36z m236 48 c9 -2 22 -4 29
-4 22 -2 13 -22 -27 -62 -46 -46 -102 -55 -121 -19 -19 36 43 107 83 94 11 -3
27 -8 36 -9z m132 -84 l29 -29 -41 -16 c-38 -15 -43 -15 -65 -1 -25 16 -24 25
4 58 21 24 39 21 73 -12z m82 -58 c1 -33 -17 -58 -35 -47 -16 10 -7 34 12 34
21 0 27 15 10 25 -5 3 -10 18 -10 33 1 24 2 25 11 9 6 -11 11 -34 12 -54z
m-243 -20 c-12 -16 -43 -51 -68 -79 -65 -70 -115 -134 -109 -140 2 -3 27 21
55 53 126 146 172 184 197 163 17 -14 11 -30 -37 -103 -71 -105 -213 -223
-300 -249 -33 -10 -41 -9 -58 7 -11 10 -20 28 -20 40 0 34 57 114 139 196 97
96 156 139 193 139 l29 0 -21 -27z m194 -23 c22 -39 8 -60 -40 -60 -28 0 -34
4 -34 22 0 20 35 68 50 68 3 0 14 -14 24 -30z m-93 -161 c-38 -58 -48 -79 -37
-79 2 0 28 30 57 68 58 73 69 83 81 76 18 -11 -70 -146 -132 -201 -30 -28 -66
-30 -74 -5 -13 41 51 185 96 217 19 13 24 13 36 1 12 -12 8 -23 -27 -77z
m-557 -374 c-4 -8 -18 -18 -33 -21 -14 -4 -36 -16 -48 -27 -13 -11 -25 -18
-28 -15 -10 10 33 52 66 64 45 17 49 17 43 -1z m67 -22 c8 -9 38 -32 67 -50
30 -19 52 -36 50 -37 -2 -2 -15 -6 -30 -10 -22 -5 -33 0 -58 24 -25 24 -38 30
-61 26 -27 -4 -29 -2 -23 17 8 26 23 47 34 47 4 0 14 -7 21 -17z m-85 -174 c3
-6 -5 -22 -20 -35 -14 -14 -26 -29 -26 -34 0 -6 -4 -10 -9 -10 -13 0 -1 52 17
73 17 20 28 22 38 6z"/>
<path d="M5320 6059 c0 -5 5 -7 10 -4 6 3 10 8 10 11 0 2 -4 4 -10 4 -5 0 -10
-5 -10 -11z"/>
<path d="M5362 5853 c2 -20 9 -29 25 -31 21 -3 22 -2 7 27 -19 38 -36 40 -32
4z"/>
<path d="M5570 5780 c0 -25 16 -44 25 -30 4 7 0 19 -9 28 -13 14 -16 14 -16 2z"/>
<path d="M4766 6585 c-3 -8 -1 -15 4 -15 6 0 10 7 10 15 0 8 -2 15 -4 15 -2 0
-6 -7 -10 -15z"/>
<path d="M6306 6625 c-27 -15 -78 -45 -114 -67 -35 -21 -77 -41 -93 -45 -38
-7 -45 -20 -24 -43 17 -19 17 -21 -7 -52 -20 -28 -23 -38 -14 -60 6 -19 6 -48
0 -89 -6 -35 -6 -62 -1 -66 5 -3 5 -28 1 -57 -6 -47 -6 -67 -1 -136 2 -22 -2
-25 -28 -25 -23 0 -31 -5 -33 -22 -4 -26 31 -39 74 -29 24 6 26 10 18 39 -20
80 -11 157 23 198 17 21 18 48 1 31 -7 -7 -18 -12 -25 -12 -9 0 -9 10 2 47 8
25 11 51 8 56 -3 5 4 22 16 38 l22 30 -25 -7 c-34 -8 -33 0 5 48 23 28 29 42
21 50 -8 8 0 17 31 33 23 12 78 43 123 68 44 26 98 50 120 54 39 6 39 6 21
-15 -10 -11 -48 -38 -84 -59 -73 -42 -166 -122 -144 -123 8 0 25 10 38 22 18
17 26 19 35 10 34 -34 118 3 118 52 0 47 69 106 124 106 14 0 33 -10 44 -25
25 -31 36 -12 16 26 -17 35 -32 40 -134 45 -78 5 -89 3 -134 -21z m40 -143
c-7 -22 -32 -36 -47 -26 -13 8 -11 24 3 22 7 -2 17 7 22 19 13 27 31 14 22
-15z"/>
<path d="M6426 6545 c-28 -26 -39 -68 -11 -45 8 7 15 17 15 23 0 6 7 19 17 29
24 26 10 22 -21 -7z"/>
<path d="M6485 6540 c-16 -16 -25 -30 -21 -30 4 0 16 10 25 22 l18 22 23 -22
c18 -16 27 -19 37 -11 10 9 8 15 -11 30 -32 25 -37 24 -71 -11z"/>
<path d="M5547 6553 c-3 -5 6 -9 20 -10 19 -1 22 1 12 8 -17 11 -26 11 -32 2z"/>
<path d="M5626 6531 c8 -16 21 -34 28 -41 12 -9 13 -7 9 12 -6 25 -31 58 -44
58 -4 0 -1 -13 7 -29z"/>
<path d="M5600 6512 c0 -5 7 -15 15 -22 8 -7 15 -9 15 -6 0 4 -7 14 -15 22 -8
9 -15 11 -15 6z"/>
<path d="M5664 6441 c7 -11 46 -35 46 -28 0 3 -12 12 -26 22 -15 9 -23 12 -20
6z"/>
<path d="M6473 6270 c-52 -23 -123 -79 -123 -96 0 -6 16 -21 35 -33 43 -25 45
-51 5 -74 -30 -18 -30 -19 -13 -42 10 -13 23 -24 28 -23 32 2 50 -5 76 -31 25
-26 28 -33 19 -56 -8 -22 -7 -26 6 -23 8 2 23 15 31 30 15 24 15 34 2 100 -8
40 -14 117 -14 171 0 53 -2 97 -5 97 -3 0 -24 -9 -47 -20z"/>
<path d="M5790 6240 c0 -5 6 -10 14 -10 8 0 18 5 21 10 3 6 -3 10 -14 10 -12
0 -21 -4 -21 -10z"/>
<path d="M6240 6240 c20 -13 33 -13 25 0 -3 6 -14 10 -23 10 -15 0 -15 -2 -2
-10z"/>
<path d="M6360 5965 c-10 -13 -9 -15 8 -15 15 0 20 5 16 15 -4 8 -7 15 -9 15
-1 0 -8 -7 -15 -15z"/>
<path d="M5825 5928 c-18 -8 -75 -78 -75 -92 0 -3 5 -6 10 -6 6 0 10 6 10 14
0 8 19 30 42 50 43 35 49 51 13 34z"/>
<path d="M6220 5930 c0 -5 12 -17 26 -27 15 -9 35 -31 45 -48 13 -20 19 -25
19 -13 0 10 -16 36 -36 58 -36 39 -54 50 -54 30z"/>
<path d="M5793 5843 c-10 -38 -4 -65 15 -80 10 -7 13 -13 9 -13 -11 0 32 -60
44 -60 16 0 10 36 -10 54 -11 10 -17 25 -14 36 4 15 1 18 -15 13 -19 -4 -20
-1 -15 36 6 46 -3 55 -14 14z"/>
<path d="M6256 5826 c6 -34 5 -38 -10 -33 -12 5 -16 0 -16 -18 0 -14 -8 -29
-20 -35 -20 -11 -28 -50 -11 -50 13 0 51 49 51 65 0 7 7 15 15 19 19 7 19 47
0 72 -14 18 -15 16 -9 -20z"/>
<path d="M6350 5705 c0 -7 4 -25 9 -38 11 -28 4 -42 -14 -27 -20 16 -23 -9
-10 -65 7 -27 13 -43 14 -34 0 9 10 44 21 78 10 34 17 68 14 75 -8 20 -34 29
-34 11z"/>
<path d="M5889 5678 c0 -7 -2 -21 -4 -32 -5 -24 11 -8 20 22 4 13 2 22 -4 22
-6 0 -11 -6 -12 -12z"/>
<path d="M6151 5683 c0 -5 4 -17 9 -28 8 -18 9 -17 9 8 1 15 -3 27 -9 27 -5 0
-10 -3 -9 -7z"/>
<path d="M5930 5651 c-7 -15 -7 -21 0 -21 12 0 25 28 17 36 -3 3 -10 -4 -17
-15z"/>
<path d="M6110 5657 c0 -8 7 -20 15 -27 12 -10 15 -10 15 3 0 8 -7 20 -15 27
-12 10 -15 10 -15 -3z"/>
<path d="M6066 5631 c-8 -12 10 -41 25 -41 13 0 11 13 -4 35 -10 13 -16 15
-21 6z"/>
<path d="M5970 5609 c-7 -11 -10 -22 -8 -25 8 -7 48 27 43 37 -10 15 -24 10
-35 -12z"/>
<path d="M5804 5296 c-3 -14 -2 -38 3 -53 l10 -28 12 24 c10 19 11 25 1 31 -7
5 -10 15 -7 24 3 8 2 18 -3 21 -5 3 -12 -5 -16 -19z"/>
<path d="M6240 5295 c0 -15 -4 -24 -10 -20 -13 8 -13 -11 0 -36 10 -18 32 -27
28 -11 -1 4 2 19 6 34 6 20 3 32 -8 43 -15 15 -16 14 -16 -10z"/>
<path d="M6270 5313 c0 -4 5 -15 10 -23 8 -13 10 -13 10 2 0 9 -4 20 -10 23
-5 3 -10 3 -10 -2z"/>
<path d="M5830 5205 c-14 -16 -10 -18 14 -9 9 3 16 10 16 15 0 14 -16 11 -30
-6z"/>
<path d="M6210 5205 c7 -8 16 -15 21 -15 5 0 6 7 3 15 -4 8 -13 15 -21 15 -13
0 -13 -3 -3 -15z"/>
<path d="M6210 5140 c0 -10 51 -60 62 -60 4 0 21 -13 39 -30 41 -37 50 -31 15
10 -14 17 -26 36 -26 41 0 6 -5 7 -10 4 -6 -4 -20 5 -31 19 -20 26 -49 35 -49
16z"/>
<path d="M5813 5120 c-10 -11 -23 -20 -30 -20 -8 0 -18 -11 -23 -25 -5 -14
-14 -25 -19 -25 -10 0 -24 -30 -16 -38 2 -3 22 10 44 29 22 19 54 44 70 57 17
13 31 28 31 33 0 17 -40 9 -57 -11z"/>
<path d="M5847 5076 c-15 -16 -27 -33 -27 -39 0 -5 -9 -7 -21 -4 -18 5 -20 2
-14 -24 4 -17 2 -29 -3 -29 -14 0 -30 -52 -27 -88 1 -19 -4 -37 -13 -44 -9 -8
-13 -8 -9 -2 4 7 2 26 -4 43 -9 25 -8 36 3 54 21 33 28 56 19 62 -5 3 -23 -20
-40 -50 -33 -59 -53 -64 -47 -14 6 49 -15 18 -29 -43 -6 -29 -16 -53 -21 -53
-5 0 -22 -9 -39 -21 -16 -11 -49 -28 -72 -38 -44 -19 -65 -46 -36 -46 13 0 14
-3 5 -12 -9 -9 -18 -9 -37 0 -20 9 -25 9 -25 -2 0 -8 13 -17 30 -21 27 -6 167
2 181 11 10 6 49 -27 49 -42 0 -8 -7 -14 -16 -14 -8 0 -12 -5 -9 -10 4 -6 1
-18 -6 -26 -20 -24 -4 -26 25 -3 39 31 50 64 30 94 -22 34 -60 44 -115 30 -43
-10 -46 -10 -36 6 6 9 22 24 37 32 51 30 139 -10 156 -71 6 -25 8 -22 26 33
33 103 37 124 25 154 -9 24 -7 34 7 56 10 15 23 24 30 22 9 -4 14 3 14 18 0
12 10 36 22 53 32 43 21 65 -13 28z m-156 -242 c-19 -8 -41 -19 -48 -26 -7 -6
-13 -8 -13 -4 0 10 63 46 80 46 8 -1 0 -7 -19 -16z"/>
<path d="M6290 5005 c0 -3 9 -23 19 -43 11 -22 17 -48 14 -64 -6 -30 -33 -47
-33 -21 0 23 -17 4 -21 -22 -2 -11 8 -53 21 -93 l24 -73 16 32 c9 20 31 41 58
54 42 21 42 22 20 34 -13 6 -34 19 -48 27 l-25 16 26 -6 c38 -8 167 -88 182
-112 5 -8 -9 -8 -47 1 -62 15 -89 6 -114 -35 l-16 -25 23 23 c21 22 29 23 85
17 97 -12 121 -12 144 -4 33 13 27 32 -7 24 -17 -3 -32 -2 -36 4 -3 6 1 11 11
11 16 0 16 1 0 19 -10 11 -30 22 -44 26 -15 4 -42 18 -60 31 -17 14 -36 23
-41 19 -5 -3 -12 3 -14 12 -3 10 -10 39 -17 66 -15 58 -28 69 -24 22 1 -19 -1
-35 -6 -35 -9 0 -60 76 -60 90 0 5 -7 10 -15 10 -8 0 -15 -2 -15 -5z"/>
<path d="M5810 4924 c0 -14 4 -23 10 -19 6 3 10 15 10 26 0 10 -4 19 -10 19
-5 0 -10 -12 -10 -26z"/>
<path d="M6240 4926 c0 -14 5 -26 10 -26 6 0 10 9 10 19 0 11 -4 23 -10 26 -6
4 -10 -5 -10 -19z"/>
<path d="M5580 4666 c-15 -29 -7 -58 14 -50 20 8 48 52 41 64 -11 18 -42 10
-55 -14z"/>
<path d="M5345 4646 c-10 -14 -14 -37 -11 -59 5 -33 2 -38 -20 -43 -19 -5 -27
-18 -40 -60 -17 -60 -13 -74 19 -74 40 0 48 12 34 49 -12 32 -11 34 28 67 22
19 39 39 37 44 -1 6 -3 28 -4 50 -2 47 -22 59 -43 26z"/>
<path d="M5468 4639 c4 -4 27 -9 52 -13 41 -5 43 -5 26 9 -18 14 -93 17 -78 4z"/>
<path d="M5225 4523 c9 -39 25 -53 25 -22 0 14 5 30 12 37 9 9 6 12 -16 12
-26 0 -28 -2 -21 -27z"/>
<path d="M6670 5867 c0 -13 -5 -28 -12 -35 -9 -9 -8 -12 4 -12 23 0 38 23 31
48 -7 29 -23 28 -23 -1z"/>
<path d="M6488 5764 c-5 -4 -8 -16 -8 -28 0 -14 3 -17 11 -9 6 6 9 19 7 28 -1
9 -6 13 -10 9z"/>
<path d="M7210 6343 c-48 -34 -147 -80 -195 -88 -22 -4 -53 -15 -70 -23 -55
-29 0 -26 83 4 91 33 144 62 192 103 43 37 37 39 -10 4z"/>
<path d="M6925 4803 c-22 -20 -31 -31 -20 -25 32 18 70 50 65 55 -3 3 -23 -11
-45 -30z"/>
<path d="M1298 4775 c-2 -2 -43 -6 -93 -9 -49 -4 -101 -8 -115 -10 -14 -3 -59
-7 -100 -11 -41 -3 -88 -8 -105 -11 -16 -2 -52 -6 -80 -9 -136 -12 -201 -21
-215 -30 -9 -6 -9 -39 1 -49 3 -3 34 -1 69 4 36 5 97 11 135 15 39 3 81 7 95
10 14 2 57 6 95 10 39 3 81 8 95 10 14 2 63 6 110 10 47 3 103 8 125 10 175
17 603 23 723 11 28 -3 78 -9 110 -12 31 -3 82 -9 112 -14 30 -5 69 -12 85
-14 17 -3 44 -8 60 -10 28 -5 43 -8 105 -21 52 -10 87 -15 145 -21 33 -3 66
-7 73 -10 16 -5 282 -17 377 -17 75 0 367 12 425 18 19 1 75 6 124 10 50 4 97
8 106 10 9 2 54 6 101 10 46 4 91 8 99 10 8 2 53 6 100 10 86 7 100 14 95 44
-2 9 -4 20 -4 24 -1 5 -4 6 -9 4 -4 -3 -43 -8 -87 -12 -44 -3 -87 -8 -95 -10
-8 -2 -49 -6 -90 -10 -41 -3 -86 -8 -100 -10 -14 -3 -64 -7 -112 -11 -48 -3
-100 -7 -115 -9 -57 -7 -362 -18 -478 -18 -194 1 -425 20 -560 47 -82 16 -248
46 -285 52 -42 6 -916 14 -922 9z"/>
<path d="M1548 4555 c-1 -1 -66 -6 -143 -10 -77 -4 -147 -8 -156 -10 -8 -2
-58 -6 -110 -10 -52 -4 -105 -8 -119 -10 -14 -1 -59 -6 -100 -10 -41 -3 -86
-8 -100 -10 -26 -4 -175 -18 -197 -18 -13 0 -17 -25 -8 -50 5 -11 16 -12 53
-7 26 5 83 11 127 14 78 7 139 13 200 21 17 2 68 7 115 10 47 3 94 8 105 10
124 25 852 26 980 1 11 -2 43 -6 70 -10 28 -4 84 -13 125 -21 86 -16 101 -18
270 -42 180 -24 823 -23 981 2 13 2 60 6 104 10 44 3 94 7 110 9 17 2 66 7
110 11 44 4 91 8 105 10 14 2 40 3 58 4 29 1 32 4 32 32 l0 30 -87 -6 c-49 -4
-90 -8 -93 -10 -3 -2 -43 -6 -90 -10 -47 -3 -92 -8 -100 -10 -8 -2 -55 -7
-105 -10 -49 -4 -106 -8 -125 -10 -192 -18 -538 -24 -728 -12 -121 8 -283 29
-402 52 -102 21 -119 24 -166 30 -21 3 -64 7 -94 10 -30 3 -71 8 -90 11 -37 6
-526 14 -532 9z"/>
<path d="M1489 4326 c-2 -2 -60 -7 -127 -11 -68 -3 -138 -8 -155 -10 -18 -2
-70 -7 -117 -10 -47 -4 -92 -9 -100 -10 -9 -2 -47 -6 -85 -9 -39 -4 -86 -8
-105 -11 -19 -2 -63 -7 -97 -10 -62 -7 -63 -8 -63 -37 l0 -29 58 5 c31 4 82 9
112 12 30 3 89 9 130 14 96 11 165 18 265 26 44 3 98 7 120 9 262 25 673 22
870 -6 39 -5 93 -12 120 -15 28 -3 53 -8 56 -10 4 -2 24 -6 45 -9 22 -3 59
-10 84 -15 71 -15 177 -28 285 -37 179 -14 719 -7 837 12 13 2 59 6 103 10 44
3 94 8 110 9 17 2 64 7 105 11 41 4 89 9 105 11 17 1 47 4 68 5 37 3 40 5 40
34 0 29 -3 32 -30 29 -16 -2 -57 -6 -93 -10 -36 -3 -72 -7 -80 -9 -8 -2 -55
-6 -105 -10 -49 -4 -98 -9 -107 -11 -9 -1 -57 -6 -105 -9 -48 -4 -104 -9 -123
-12 -19 -2 -177 -6 -350 -8 -278 -4 -359 0 -512 20 -44 5 -272 43 -308 50 -14
3 -41 7 -60 10 -19 3 -54 7 -77 11 -24 3 -60 8 -80 11 -52 6 -628 14 -634 9z"/>
<path d="M1538 4095 c-2 -1 -60 -6 -130 -9 -69 -4 -137 -9 -150 -11 -13 -2
-63 -6 -111 -10 -48 -3 -96 -8 -105 -10 -9 -1 -55 -6 -102 -10 -47 -4 -92 -8
-100 -10 -8 -1 -50 -6 -92 -10 -63 -5 -78 -10 -78 -23 1 -43 29 -48 170 -27
14 2 59 7 100 10 41 4 87 8 102 10 14 2 62 6 105 10 43 4 94 8 113 10 200 19
622 26 806 13 115 -9 292 -35 368 -54 32 -9 71 -17 85 -19 14 -2 42 -6 61 -9
158 -27 325 -35 600 -32 162 2 320 7 350 10 30 3 91 8 135 11 44 4 116 10 160
15 44 5 112 12 150 16 39 3 95 9 125 12 54 7 55 8 58 41 2 18 0 31 -5 28 -4
-3 -39 -8 -78 -11 -104 -9 -165 -15 -210 -20 -22 -3 -83 -8 -135 -11 -52 -4
-102 -8 -110 -10 -71 -18 -681 -27 -840 -12 -139 13 -153 15 -470 71 -47 8
-112 18 -145 21 -33 4 -71 9 -85 11 -27 6 -537 14 -542 9z"/>
<path d="M1518 3865 c-2 -2 -53 -6 -113 -10 -114 -6 -191 -12 -260 -20 -22 -2
-71 -7 -110 -10 -38 -4 -81 -8 -95 -10 -14 -2 -60 -7 -102 -10 -43 -4 -86 -8
-95 -10 -10 -2 -22 -4 -26 -4 -5 -1 -7 -11 -5 -23 3 -20 9 -23 47 -23 25 0 90
5 145 11 56 7 137 15 181 18 44 4 94 9 110 11 17 2 80 6 140 10 61 4 133 8
160 10 60 5 482 5 542 0 171 -13 336 -36 398 -55 17 -5 48 -12 71 -15 22 -3
54 -9 70 -13 31 -9 1165 -8 1199 1 11 3 58 8 105 12 47 5 92 9 100 10 8 1 50
5 93 10 42 4 77 10 78 14 7 56 12 53 -65 46 -39 -3 -84 -8 -101 -10 -16 -2
-64 -6 -105 -10 -41 -4 -86 -8 -100 -10 -14 -2 -61 -7 -105 -10 -44 -4 -96 -9
-115 -10 -235 -23 -722 -23 -860 -1 -14 2 -50 7 -80 11 -30 3 -115 17 -188 31
-73 13 -149 26 -170 29 -46 6 -106 14 -152 21 -40 6 -586 14 -592 9z"/>
<path d="M754 3569 c-4 -7 84 -363 111 -449 93 -297 176 -512 263 -685 59
-117 165 -299 219 -377 18 -27 49 -72 69 -100 113 -162 299 -381 460 -542 498
-494 1099 -893 1864 -1234 130 -58 390 -162 404 -162 11 0 17 3549 6 3551 -19
5 -3393 3 -3396 -2z m2186 -158 c0 -4 -9 -20 -21 -35 -14 -18 -18 -30 -11 -39
6 -7 9 -80 7 -177 -2 -145 0 -171 18 -212 27 -65 40 -75 68 -49 26 24 70 35
100 26 14 -5 26 -1 39 12 12 14 33 20 70 22 29 1 66 9 81 17 36 18 59 18 95
-1 16 -8 42 -15 58 -15 51 0 107 -23 133 -54 14 -17 38 -38 53 -47 70 -43 109
-168 103 -333 -2 -61 -5 -124 -7 -141 -2 -16 -4 -43 -5 -60 -1 -24 -10 -35
-45 -58 -62 -39 -114 -95 -127 -137 -6 -19 -22 -51 -36 -71 -38 -57 -63 -134
-63 -194 0 -29 -5 -57 -11 -61 -12 -7 -7 -74 8 -129 5 -16 8 -37 8 -45 -1 -8
-3 -25 -3 -37 -3 -39 -69 -101 -123 -117 -46 -14 -130 -14 -209 0 -45 9 -75 9
-127 1 -22 -3 -56 -2 -75 4 -36 11 -341 16 -373 6 -55 -17 -102 -21 -241 -22
-150 0 -151 0 -192 28 -54 38 -75 85 -72 156 5 87 4 132 -4 183 -5 30 -4 60 3
80 8 23 8 34 1 36 -20 7 -67 87 -86 146 -14 43 -25 61 -44 69 -129 53 -153 76
-149 142 2 17 -8 50 -20 74 -16 31 -21 54 -18 77 4 21 -1 45 -13 69 -21 40
-20 86 3 136 8 19 20 49 26 68 22 68 134 191 174 191 13 0 50 12 82 26 46 21
65 25 98 19 23 -3 67 -6 97 -6 41 1 64 -4 90 -21 21 -13 52 -23 78 -23 27 -1
50 -9 65 -22 19 -18 26 -19 53 -9 23 8 30 17 29 34 -2 24 39 97 69 121 15 13
15 15 -1 33 -25 28 -29 240 -6 277 12 18 13 29 4 47 l-11 24 190 0 c105 0 190
-4 190 -9z"/>
<path d="M2635 3362 c-2 -2 11 -24 28 -48 19 -27 33 -40 36 -32 10 31 71 53
71 25 0 -19 -29 -57 -44 -57 -6 0 -36 16 -66 35 -30 19 -58 35 -61 35 -10 0
-10 -208 0 -214 5 -3 20 3 34 14 14 11 30 20 36 20 15 0 -36 -97 -81 -154 -37
-46 -39 -53 -36 -105 2 -34 -1 -55 -7 -54 -6 1 -22 4 -37 8 -19 5 -31 1 -46
-15 l-20 -21 -36 35 c-41 41 -58 44 -94 16 l-26 -21 -14 35 c-12 31 -33 47
-67 51 -5 1 -24 -4 -41 -10 -24 -10 -34 -10 -49 1 -28 21 -66 17 -127 -11 -29
-14 -60 -25 -69 -25 -33 0 -149 -146 -149 -187 0 -7 -9 -27 -20 -45 -23 -38
-25 -73 -7 -109 9 -17 11 -33 5 -49 -7 -19 -2 -37 21 -81 24 -47 28 -63 21
-87 -7 -25 -4 -34 13 -50 20 -18 138 -72 158 -72 4 0 5 15 2 33 -4 24 0 37 16
51 21 19 21 19 21 -13 0 -17 -7 -48 -15 -68 -20 -47 -19 -69 6 -123 25 -56 56
-90 83 -90 18 0 17 3 -10 33 -53 57 -60 73 -16 35 66 -55 134 -59 204 -13 30
20 39 31 35 47 -8 28 11 65 37 72 37 10 82 6 102 -8 17 -13 17 -15 2 -21 -9
-4 -25 -2 -36 4 -17 9 -21 7 -26 -14 -6 -24 -36 -36 -36 -15 0 20 -18 10 -24
-14 -7 -28 -89 -106 -113 -107 -20 -1 -46 -5 -80 -14 -44 -11 -64 -89 -40
-165 9 -29 11 -56 5 -75 -14 -54 -15 -119 -2 -147 31 -61 119 -89 198 -61 27
9 43 10 50 3 14 -14 61 -12 136 6 78 19 298 25 422 11 57 -6 102 -6 126 0 21
6 48 6 60 2 24 -9 98 -21 147 -24 55 -3 109 14 138 45 31 35 34 71 12 146 -8
28 -12 61 -9 75 3 13 8 43 11 65 5 38 3 42 -22 48 -36 9 -91 -23 -87 -50 5
-24 5 -24 35 -30 14 -2 29 0 32 6 6 10 -7 14 -34 11 -19 -3 -7 23 13 27 9 2
23 -2 31 -8 11 -10 11 -19 -1 -61 -8 -27 -12 -54 -9 -59 8 -13 -4 -13 -46 1
-19 6 -40 13 -48 15 -10 3 -11 8 -4 15 7 7 22 7 47 1 20 -6 36 -9 36 -7 0 10
-85 44 -145 58 -70 16 -96 20 -190 33 -61 8 -323 9 -385 1 -25 -4 -85 -11
-135 -17 -49 -6 -126 -17 -170 -25 -139 -25 -150 -26 -168 -13 -16 12 -16 15
-2 36 18 25 45 29 45 6 0 -8 -4 -13 -9 -9 -5 3 -12 1 -15 -4 -9 -14 11 -23 33
-16 41 13 35 61 -8 72 -36 10 -38 10 -62 12 -59 3 45 48 151 66 19 3 42 8 50
10 105 32 657 52 720 27 19 -7 -2 -10 -90 -12 -366 -6 -464 -11 -570 -25 -19
-2 -59 -7 -88 -11 -30 -3 -72 -14 -95 -24 -37 -16 -39 -19 -16 -19 15 -1 51 4
80 9 30 6 68 13 86 15 31 5 32 4 23 -20 -9 -23 -6 -27 24 -41 29 -14 37 -15
61 -3 39 19 55 47 35 59 -8 5 -26 10 -39 10 -46 0 -15 9 50 15 133 11 189 13
194 6 2 -4 -6 -16 -17 -26 -19 -16 -20 -19 -5 -30 9 -6 43 -12 76 -13 66 -1
80 11 55 47 -20 28 -44 27 -41 -1 2 -18 -3 -23 -22 -23 -19 0 -25 6 -25 27
l-2 27 216 0 c168 0 220 -3 236 -14 23 -15 154 -48 161 -41 3 2 -20 14 -49 25
l-53 22 49 -6 c27 -3 63 -14 81 -25 35 -21 45 -18 45 14 0 27 42 117 75 160
14 18 25 38 25 45 0 32 86 128 140 156 23 12 28 23 33 67 11 92 10 100 -13 86
-15 -10 -25 -10 -38 -2 -24 16 -26 37 -5 63 19 24 53 21 53 -5 0 -8 4 -14 9
-14 26 0 -11 258 -41 276 -6 4 -8 3 -5 -3 11 -17 -26 -55 -45 -48 -24 10 -29
30 -11 55 11 15 22 20 37 16 17 -4 16 -1 -9 19 -16 14 -35 25 -41 25 -7 0 -14
9 -17 19 -7 29 -46 49 -107 56 -30 4 -65 13 -78 21 -20 13 -25 13 -44 -1 -13
-8 -43 -15 -69 -15 -32 0 -55 -7 -73 -21 -20 -16 -36 -20 -66 -16 -31 3 -47
-1 -72 -19 -17 -13 -39 -24 -48 -24 -25 0 -56 38 -86 105 -15 33 -38 72 -52
87 -14 15 -26 38 -26 50 -1 13 -9 34 -19 48 l-17 24 0 -26 c0 -19 -6 -27 -22
-30 -55 -10 -81 19 -48 52 32 32 71 25 124 -21 l46 -41 0 116 c0 127 -6 138
-50 91 -24 -26 -21 -40 8 -40 19 0 30 -61 14 -77 -15 -15 -50 0 -58 25 -11 32
-6 56 27 114 16 29 29 54 29 55 0 4 -201 4 -205 0z m39 -127 c19 -29 9 -65
-25 -89 -28 -19 -36 -13 -42 39 -9 70 33 102 67 50z m62 -44 c-19 -19 -30 -9
-21 19 5 17 9 19 21 9 13 -11 13 -14 0 -28z m-17 -178 c-12 -47 -61 -110 -95
-124 -30 -11 -31 -25 -1 -33 36 -9 61 -7 116 11 l52 16 30 -31 c37 -38 60 -42
51 -10 -4 15 -2 19 7 13 8 -4 10 -17 7 -31 -7 -25 -64 -125 -77 -134 -13 -9
-13 -35 0 -86 13 -53 9 -130 -8 -147 -13 -13 -19 15 -24 110 -2 40 -9 79 -15
86 -11 13 4 39 56 94 32 35 19 41 -33 15 -57 -27 -77 -28 -118 -1 -48 32 -78
75 -84 117 -4 31 1 44 32 85 29 38 104 100 112 93 1 -1 -3 -20 -8 -43z m86 -3
c26 -10 61 -72 50 -90 -3 -5 -24 -7 -46 -4 -23 4 -45 1 -53 -5 -11 -9 -15 -6
-20 12 -8 34 0 67 21 83 22 16 17 16 48 4z m545 -119 c13 -26 -17 -65 -43 -56
-19 8 -22 27 -7 56 14 24 36 24 50 0z m-1242 -18 c4 -26 -29 -47 -58 -38 -25
8 -26 40 -2 54 27 17 57 9 60 -16z m136 -30 c-13 -39 -51 -44 -60 -7 -6 22 -2
31 16 46 21 17 25 17 39 4 11 -12 13 -22 5 -43z m986 8 c0 -39 -42 -54 -60
-21 -8 15 -6 23 12 39 24 23 48 13 48 -18z m254 13 c22 -22 20 -43 -6 -53 -45
-17 -64 14 -31 51 20 22 18 22 37 2z m-1524 -34 c8 -15 6 -24 -10 -40 -23 -23
-41 -25 -58 -8 -13 13 -16 50 -5 61 14 15 63 7 73 -13z m430 -31 c0 -32 -12
-43 -40 -34 -26 8 -28 60 -3 74 24 13 43 -4 43 -40z m698 10 c3 -28 -16 -43
-43 -33 -15 6 -21 45 -8 58 16 16 48 1 51 -25z m-548 -14 c11 -13 11 -20 0
-40 -15 -28 -22 -30 -50 -15 -19 10 -18 31 4 57 15 17 31 16 46 -2z m425 -5
c11 -18 -6 -50 -25 -50 -24 0 -33 15 -25 40 7 21 39 27 50 10z m460 -19 c83
-37 126 -104 130 -201 2 -72 -16 -197 -34 -226 -12 -20 -13 -26 5 101 11 82 8
158 -9 197 -57 134 -178 157 -417 79 -99 -33 -132 -42 -180 -47 -52 -7 -16 13
56 29 33 8 79 24 103 35 23 12 75 29 115 38 39 9 76 17 81 18 26 7 114 -7 150
-23z m-1172 -11 c62 -23 281 -80 307 -80 10 0 21 -4 24 -8 7 -11 -99 -3 -164
13 -30 7 -93 25 -140 40 -110 35 -230 39 -275 10 -99 -65 -123 -195 -67 -359
16 -47 26 -86 21 -86 -18 0 -47 44 -54 83 -4 23 -9 49 -12 57 -2 8 -6 43 -9
76 -13 133 53 241 163 269 61 16 139 10 206 -15z m381 -58 c14 -48 16 -245 3
-259 -4 -3 -7 9 -8 28 -6 194 -15 268 -37 304 -4 6 1 2 10 -8 10 -10 24 -40
32 -65z m-284 -13 c52 -17 130 -34 172 -38 42 -4 80 -10 84 -14 15 -15 -22
-36 -101 -59 -44 -12 -83 -27 -87 -33 -4 -5 0 -20 8 -33 25 -39 10 -46 -25
-13 -45 42 -147 98 -194 106 -56 11 -119 -11 -178 -62 -65 -55 -83 -54 -87 9
-6 91 56 163 163 187 35 9 111 -7 245 -50z m1072 33 c25 -15 45 -41 62 -75 24
-53 41 -127 28 -127 -4 0 -54 23 -111 51 -126 62 -152 64 -254 15 -41 -20 -88
-39 -105 -42 -18 -4 -30 -9 -27 -13 2 -4 0 -13 -5 -21 -8 -12 -12 -11 -29 7
-11 12 -43 34 -70 48 -83 46 -76 77 22 89 28 3 111 26 182 50 112 39 140 45
200 43 53 -2 80 -8 107 -25z m-1553 1 c20 -37 -27 -71 -57 -41 -16 16 -15 23
4 42 20 21 41 20 53 -1z m875 -8 c3 -9 -1 -18 -10 -22 -19 -7 -28 2 -21 22 8
19 23 19 31 0z m5 -93 c11 -21 18 -47 16 -58 -2 -10 -4 -29 -4 -41 -1 -24 -16
-29 -41 -13 -13 8 -11 12 9 26 21 15 21 18 7 26 -12 7 -14 13 -6 29 7 13 7 25
0 38 -11 21 -13 31 -5 31 2 0 13 -17 24 -38z m879 16 c16 -16 15 -55 0 -60
-32 -12 -47 16 -32 56 7 19 16 20 32 4z m-1814 -89 c-20 -19 -22 -19 -38 -4
-9 9 -16 20 -16 25 0 5 7 16 16 25 16 15 18 15 38 -4 l20 -21 -20 -21z m870
-6 c-8 -41 -13 -40 -11 0 1 19 5 33 9 31 4 -2 4 -17 2 -31z m-577 -35 c-8 -73
-15 -100 -28 -112 -8 -8 -9 -5 -3 14 5 14 9 48 10 75 2 72 3 75 15 75 8 0 10
-17 6 -52z m1284 -9 c10 -21 19 -42 19 -46 -1 -12 -29 27 -52 72 -17 33 -18
37 -4 26 10 -8 26 -32 37 -52z m-1553 -31 c15 -15 16 -50 1 -65 -17 -17 -49
-3 -55 23 -10 41 27 69 54 42z m1107 -8 c-10 -11 -21 -18 -23 -15 -3 3 3 12
14 20 27 20 30 18 9 -5z m-614 -32 c38 -75 11 -178 -47 -178 -13 0 -26 5 -29
10 -3 6 -10 10 -16 10 -5 0 0 -17 11 -37 24 -45 25 -63 5 -63 -18 0 -64 49
-71 77 -8 29 12 63 37 63 11 0 30 -7 43 -15 31 -20 34 -11 31 85 -4 104 3 113
36 48z m412 36 c9 -10 -4 -34 -19 -34 -8 0 -14 6 -14 13 0 22 19 35 33 21z
m423 -50 c9 -33 -1 -100 -21 -144 l-15 -35 6 40 c3 22 8 49 10 60 5 23 -29
-41 -44 -83 -9 -24 -11 -21 -11 25 -1 66 35 161 61 163 4 0 11 -12 14 -26z
m-363 -11 c7 -6 -30 -73 -47 -85 -23 -16 -46 -6 -77 33 -26 33 -29 43 -18 50
16 10 132 12 142 2z m827 -42 c15 -29 2 -53 -24 -45 -11 3 -27 13 -34 22 -11
14 -10 19 5 29 24 18 41 16 53 -6z m-1170 -21 c24 -24 26 -59 5 -86 -19 -25
-19 -34 1 -34 20 0 13 -24 -9 -28 -14 -3 -22 17 -32 83 -1 6 -3 14 -3 18 -1 4
-11 3 -22 -3 -24 -13 -25 -10 -3 35 19 40 34 44 63 15z m170 -20 c22 -23 40
-47 40 -54 0 -17 -57 -102 -67 -99 -4 2 -8 22 -10 45 -1 24 -4 67 -7 96 -3 28
-3 52 0 52 2 0 23 -18 44 -40z m238 -50 c0 -43 -3 -82 -8 -85 -6 -3 -27 6 -47
22 -21 15 -40 28 -41 29 -9 5 76 114 88 114 4 0 7 -36 8 -80z m171 55 c23 -30
21 -53 -9 -95 -23 -33 -39 -38 -41 -15 -1 8 -2 18 -3 23 -11 43 -16 93 -11
102 11 18 43 11 64 -15z m-1161 -7 c30 -30 -13 -82 -45 -56 -14 11 -18 50 -6
61 10 11 38 8 51 -5z m1597 -29 c46 -33 47 -37 11 -84 -14 -19 -16 -17 -40 38
-40 88 -37 93 29 46z m-213 -27 c-1 -34 -39 -102 -57 -102 -31 0 -33 62 -3 92
l21 21 -21 -5 c-33 -9 -26 7 11 25 37 19 50 10 49 -31z m-518 12 c7 -17 -9
-44 -26 -44 -15 0 -21 30 -8 45 16 19 26 19 34 -1z m686 -93 c0 -14 -15 -39
-39 -62 -41 -41 -66 -50 -57 -21 2 9 12 52 22 95 l18 79 28 -34 c15 -18 28
-44 28 -57z m-1353 67 c16 -25 40 -127 32 -139 -5 -9 -14 -8 -34 5 -39 26 -51
58 -36 106 12 41 24 49 38 28z m293 -48 c-19 -13 -30 -13 -30 0 0 6 10 10 23
10 18 0 19 -2 7 -10z m401 -53 c0 -17 55 -58 97 -73 51 -18 80 -17 131 6 47
22 69 18 36 -6 -31 -23 -95 -36 -142 -29 -25 3 -67 23 -101 46 -67 44 -69 44
-91 25 -53 -45 -147 -81 -236 -90 -27 -3 -61 -8 -75 -11 -95 -19 -102 -10 -33
39 43 30 65 33 150 21 90 -13 174 35 205 114 l10 26 24 -28 c13 -15 24 -33 25
-40z m350 53 c30 -17 22 -29 -11 -17 -16 6 -30 15 -30 19 0 11 18 10 41 -2z
m-63 -61 c-7 -4 -18 -3 -26 3 -10 9 -10 13 0 19 7 4 18 3 26 -3 10 -9 10 -13
0 -19z m52 4 c0 -5 -5 -15 -10 -23 -8 -12 -10 -11 -10 8 0 12 5 22 10 22 6 0
10 -3 10 -7z m360 -8 c0 -22 -113 -130 -151 -146 -31 -12 -86 -7 -179 16 -14
3 -56 7 -94 7 l-68 1 32 20 c38 24 81 24 135 1 88 -37 130 -43 172 -24 34 15
52 32 123 118 22 26 30 28 30 7z m-297 -10 c-4 -15 -36 -12 -41 3 -3 9 3 13
19 10 13 -1 23 -7 22 -13z m-405 -50 c18 -19 32 -36 32 -38 0 -2 -34 -4 -75
-4 -41 0 -75 4 -75 8 0 9 68 69 79 69 4 0 22 -16 39 -35z m391 -21 c3 -16 1
-17 -13 -5 -19 16 -21 34 -3 29 6 -3 14 -13 16 -24z m-719 -153 c0 -15 -23
-28 -41 -24 -24 7 -24 19 -2 31 17 10 43 6 43 -7z m640 -89 c30 -2 40 -5 31
-11 -8 -5 -71 -10 -140 -11 -551 -9 -583 -11 -721 -39 -108 -22 -108 -10 0 18
81 20 144 28 285 38 50 3 91 6 92 7 3 3 391 1 453 -2z m-70 -56 c147 -6 168
-11 258 -51 92 -41 107 -91 36 -121 -30 -13 -65 -14 -188 -9 -260 11 -563 5
-701 -13 -82 -10 -254 1 -283 19 -59 37 -28 93 71 126 79 26 109 31 220 39 45
3 109 8 142 12 67 8 240 7 445 -2z"/>
<path d="M2735 2823 c-28 -7 -39 -19 -23 -26 8 -3 25 4 39 14 24 19 21 21 -16
12z"/>
<path d="M2322 2325 c0 -16 2 -22 5 -12 2 9 2 23 0 30 -3 6 -5 -1 -5 -18z"/>
<path d="M2412 2059 c5 -14 48 -32 48 -20 0 4 -12 13 -26 20 -20 9 -25 9 -22
0z"/>
<path d="M2951 1712 c-6 -11 -8 -22 -4 -25 3 -4 0 -13 -6 -21 -10 -11 -7 -17
11 -30 32 -23 78 -21 78 3 0 13 -10 21 -32 26 l-33 7 33 14 c40 18 37 38 -6
42 -22 2 -34 -2 -41 -16z"/>
<path d="M2436 1696 c-35 -17 -38 -20 -18 -23 13 -3 22 -12 22 -23 0 -10 6
-20 13 -22 20 -7 78 6 77 17 0 6 -3 10 -7 10 -5 1 -18 5 -31 9 -19 6 -21 10
-11 22 6 8 18 14 25 14 8 0 14 4 14 8 0 14 -42 8 -84 -12z"/>
<path d="M2715 1713 c-42 -9 -75 -26 -75 -38 0 -39 101 -74 114 -40 3 10 -1
15 -12 15 -24 0 -64 29 -56 41 3 5 14 7 23 4 10 -3 24 1 31 10 13 15 10 16
-25 8z"/>
<path d="M2255 1688 c-28 -8 -82 -45 -74 -51 14 -10 67 -31 79 -32 8 -1 23 3
34 8 16 8 14 11 -20 27 l-39 17 35 15 c40 17 29 29 -15 16z"/>
<path d="M3212 1680 l-23 -10 23 -30 c20 -28 62 -49 74 -38 2 3 -5 15 -16 28
-25 29 -25 30 0 25 26 -5 26 11 1 25 -23 12 -28 12 -59 0z"/>
<path d="M2992 1918 c-38 -38 81 -82 126 -46 10 9 9 15 -5 30 -17 19 -17 19
-25 -1 -8 -22 -33 -28 -43 -10 -4 6 1 17 11 24 17 13 16 14 -16 15 -20 0 -41
-5 -48 -12z"/>
<path d="M2851 1911 c-6 -4 12 -8 40 -8 28 -1 48 1 45 4 -9 9 -72 12 -85 4z"/>
<path d="M2524 1898 c-3 -4 11 -8 30 -8 20 0 36 4 36 8 0 11 -60 11 -66 0z"/>
<path d="M3165 1870 c-3 -4 4 -10 15 -13 11 -3 22 -2 25 3 3 4 -4 10 -15 13
-11 3 -22 2 -25 -3z"/>
<path d="M2258 1863 c6 -2 18 -2 25 0 6 3 1 5 -13 5 -14 0 -19 -2 -12 -5z"/>
<path d="M4300 2623 c0 -520 2 -944 5 -942 2 2 351 350 775 774 l770 770 565
-565 c454 -453 567 -562 575 -550 29 43 114 199 167 305 139 277 250 604 342
1003 17 73 31 138 31 143 0 5 -629 9 -1615 9 l-1615 0 0 -947z m724 843 c102
-37 148 -98 147 -194 -1 -87 -9 -113 -57 -193 l-33 -56 20 -54 c42 -109 22
-222 -53 -306 -11 -12 -17 -26 -14 -32 14 -21 -41 -34 -159 -36 -192 -3 -246
20 -303 130 -22 43 -26 62 -26 135 0 55 6 97 16 119 15 34 15 35 -17 80 -72
100 -83 220 -30 307 37 59 89 90 182 109 93 18 264 13 327 -9z m2064 2 c67
-25 110 -59 133 -106 38 -78 21 -196 -43 -291 l-29 -44 22 -60 c41 -108 21
-219 -53 -303 -11 -12 -18 -27 -16 -35 5 -22 -77 -36 -203 -34 -137 2 -187 20
-232 84 -58 83 -71 174 -41 282 l16 57 -26 35 c-70 92 -83 224 -32 312 41 70
80 90 231 119 49 9 233 -2 273 -16z"/>
<path d="M4567 3362 c-25 -28 -45 -85 -37 -107 5 -15 8 -10 13 21 4 23 16 53
28 68 24 31 21 46 -4 18z"/>
<path d="M4695 3335 c-27 -7 -57 -23 -67 -35 -30 -37 -21 -120 16 -155 37 -34
42 -36 82 -19 50 22 143 26 191 8 60 -21 68 -18 92 34 43 92 25 152 -51 173
-51 13 -199 10 -263 -6z"/>
<path d="M5093 3217 c-7 -23 -15 -51 -19 -62 -5 -13 -4 -17 3 -10 12 12 38
103 31 110 -2 2 -9 -15 -15 -38z"/>
<path d="M4741 2884 c0 -11 3 -14 6 -6 3 7 2 16 -1 19 -3 4 -6 -2 -5 -13z"/>
<path d="M6631 3357 c-21 -26 -39 -82 -31 -102 5 -15 8 -10 13 21 4 23 16 53
28 67 20 27 12 39 -10 14z"/>
<path d="M6765 3338 c-21 -5 -50 -19 -63 -31 -21 -19 -23 -28 -19 -76 5 -45
12 -61 39 -87 l33 -33 58 20 c60 20 148 20 186 -1 40 -21 58 -12 81 42 57 133
6 182 -183 177 -51 -2 -110 -7 -132 -11z"/>
<path d="M7160 3209 c-6 -22 -13 -48 -16 -57 -3 -9 1 -6 9 8 14 25 30 90 22
90 -2 0 -9 -18 -15 -41z"/>
<path d="M6811 2884 c0 -11 3 -14 6 -6 3 7 2 16 -1 19 -3 4 -6 -2 -5 -13z"/>
<path d="M5077 1703 l-777 -778 0 -457 0 -457 168 68 c555 227 1028 491 1421
794 64 50 118 93 121 96 3 4 18 17 34 29 141 108 397 364 566 565 l73 89 -414
414 -415 415 -777 -778z m873 252 c67 -9 128 -37 163 -73 72 -75 66 -223 -14
-337 l-29 -40 24 -65 c37 -104 21 -204 -49 -296 -13 -17 -21 -34 -18 -37 25
-26 -228 -44 -328 -24 -127 25 -203 201 -151 349 l20 56 -34 47 c-86 121 -81
291 10 360 40 29 113 54 185 62 31 3 57 6 58 7 6 5 111 -1 163 -9z"/>
<path d="M5551 1824 c-27 -34 -38 -92 -21 -107 10 -9 11 -9 6 0 -10 18 11 86
34 111 12 12 16 22 11 22 -5 0 -19 -12 -30 -26z"/>
<path d="M5682 1818 c-76 -16 -91 -82 -41 -179 24 -48 38 -55 76 -36 42 22
122 30 173 17 25 -6 55 -14 67 -17 26 -6 46 22 64 88 28 104 -18 137 -190 136
-58 0 -125 -4 -149 -9z"/>
<path d="M6082 1681 c-7 -21 -12 -45 -11 -52 0 -8 7 8 15 35 9 26 13 50 11 52
-2 2 -9 -13 -15 -35z"/>
<path d="M5730 1355 c0 -8 2 -15 4 -15 2 0 6 7 10 15 3 8 1 15 -4 15 -6 0 -10
-7 -10 -15z"/>
</g>
</svg>
