<?xml version="1.0" encoding="UTF-8" standalone="no"?>
<svg width="579px" height="448px" viewBox="0 0 579 448" version="1.1" xmlns="http://www.w3.org/2000/svg" xmlns:xlink="http://www.w3.org/1999/xlink">
    <!-- Generator: Sketch 3.8.3 (29802) - http://www.bohemiancoding.com/sketch -->
    <title>Group</title>
    <desc>Created with Sketch.</desc>
    <defs></defs>
    <g id="Welcome" stroke="none" stroke-width="1" fill="none" fill-rule="evenodd">
        <g id="Desktop-HD" transform="translate(-791.000000, -4786.000000)">
            <g id="Section-7" transform="translate(0.000000, 4696.000000)">
                <g id="Group-5" transform="translate(720.000000, 0.000000)">
                    <g id="Group" transform="translate(71.000000, 90.000000)">
                        <path d="M32.8200371,0 L46.3784787,0 C69.5139147,1.49296296 82.7495362,15.9960317 78.122449,43.1892857 C67.5769944,42.8693651 55.5250464,43.9357672 45.8404453,42.6560847 C45.1948052,35.8311111 47.6697588,25.8069312 43.0426716,23.0342857 C31.851577,21.2214021 32.6048237,37.1107937 35.7254174,43.1892857 C38.8460111,49.2677778 51.2207792,53.9599471 57.7847866,58.3321958 C64.3487941,62.7044444 73.0649351,68.8895767 77.0463822,76.2477513 C82.5343228,86.4852116 84.7940631,112.825344 77.5844156,125.088968 C67.1465677,142.684603 24.4267161,145.99045 9.14656772,127.328413 C1.93692022,118.477275 2.36734694,105.68045 2.36734694,88.6180159 C13.1280148,88.9379365 25.3951763,87.8715344 35.187384,89.1512169 C36.0482375,98.4289153 32.9276438,111.545661 37.9851577,116.664392 C50.3599258,120.93 50.1447124,100.135159 46.4860853,92.5637037 C43.903525,87.2316931 34.1113173,82.7528042 27.7625232,78.593836 C21.4137291,74.4348677 13.3432282,69.4227778 9.03896104,64.6239683 C-1.50649351,52.5736243 -1.61410019,26.8733333 5.05751391,14.7163492 C10.1150278,5.43865079 18.7235622,2.98592593 32.8200371,0 L32.8200371,0 Z" id="Shape" fill="#000000"></path>
                        <path d="M88.8831169,2.7726455 C114.816327,4.69216931 150.326531,-3.41248677 160.764378,15.1429101 C166.897959,25.9135714 166.144712,66.6501323 159.580705,74.5415079 C153.016698,82.4328836 139.673469,83.0727249 123.962894,82.9660847 C122.671614,99.8152381 123.747681,119.010476 123.424861,136.819392 L88.3450835,136.819392 L88.3450835,4.47888889 C88.2374768,3.73240741 88.2374768,2.87928571 88.8831169,2.7726455 L88.8831169,2.7726455 Z M133.001855,28.0463757 C131.495362,26.3401323 125.684601,24.1006878 123.424861,27.5131746 C123.747681,38.1771958 122.671614,50.3341799 123.962894,60.0384392 C126.905748,60.3408607 129.871621,59.7455724 132.463822,58.3321958 C134.185529,53.7466667 137.844156,33.3783862 133.001855,28.0463757 L133.001855,28.0463757 Z" id="Shape" fill="#000000"></path>
                        <path d="M226.404453,2.7726455 C233.721707,46.9216931 239.962894,92.1371429 246.742115,136.819392 L210.586271,136.819392 C210.478664,128.608095 209.510204,121.14328 208.864564,113.251905 C205.851577,111.972222 200.363636,113.038624 196.382189,112.718704 C195.413729,120.610079 195.198516,129.141296 194.122449,136.819392 L157.966605,136.819392 C163.884972,91.9238624 169.588126,46.9216931 176.044527,2.7726455 L226.404453,2.7726455 L226.404453,2.7726455 Z M195.844156,88.6180159 C198.749536,89.7910582 203.914657,88.8312963 207.680891,89.1512169 C205.636364,71.1290212 204.77551,51.9337831 201.977737,34.764709 C200.25603,53.0001852 197.458256,70.2758995 195.844156,88.6180159 L195.844156,88.6180159 Z" id="Shape" fill="#000000"></path>
                        <path d="M249.001855,2.7726455 C273.320965,5.22537037 308.293135,-3.51912698 320.883117,12.9034656 C329.384045,24.1006878 333.688312,69.3161376 309.046382,66.7567725 C313.888683,69.4227778 318.19295,69.6360582 321.528757,72.9419048 C333.365492,84.5656878 324.218924,116.344471 327.231911,136.926032 L294.304267,136.926032 C293.120594,117.730794 296.779221,93.6301058 292.044527,78.0606349 C289.543753,76.9712608 286.794018,76.5661875 284.081633,76.8875926 C282.790353,95.7629101 283.866419,117.090952 283.543599,136.926032 L248.463822,136.926032 C248.894249,92.3504233 247.710575,46.3884921 249.001855,2.7726455 L249.001855,2.7726455 Z M283.543599,55.4529101 C287.525046,55.8794709 289.892393,54.5997884 292.58256,53.7466667 C295.165121,47.7748148 294.842301,35.1912698 293.120594,28.4729365 C290.399909,26.3759784 286.975498,25.3845737 283.543599,25.700291 L283.543599,55.4529101 L283.543599,55.4529101 Z" id="Shape" fill="#000000"></path>
                        <path d="M331.105751,2.7726455 L407.506494,2.7726455 L407.506494,29.6459788 L387.168831,29.6459788 C385.877551,64.1974074 386.953618,101.201561 386.630798,136.819392 L350.90538,136.819392 L350.90538,29.752619 L330.567718,29.752619 C330.890538,20.9014815 329.814471,10.6640212 331.105751,2.7726455 L331.105751,2.7726455 Z" id="Shape" fill="#000000"></path>
                        <path d="M465.183673,2.7726455 C471.424861,47.7748148 478.742115,91.8172222 484.983302,136.819392 L448.827458,136.819392 C448.681438,128.938604 448.106701,121.071353 447.105751,113.251905 C444.307978,111.972222 439.03525,113.038624 435.269017,112.718704 C433.762523,119.970238 433.332096,128.394815 433.009276,136.819392 L396.207792,136.819392 C402.018553,92.6703439 408.152134,48.8412169 413.747681,4.47888889 C413.615525,3.68733824 414.138272,2.93380775 414.931354,2.7726455 L465.183673,2.7726455 L465.183673,2.7726455 Z M434.623377,89.1512169 L445.922078,89.1512169 C444.415584,70.8091005 442.693878,52.7869048 440.864564,34.764709 C438.497217,52.5736243 435.48423,69.8493386 434.623377,89.1512169 L434.623377,89.1512169 Z" id="Shape" fill="#000000"></path>
                        <path d="M516.189239,2.7726455 C522.860853,22.181164 529.281385,41.802963 535.450835,61.6380423 C536.742115,43.0826455 535.666048,22.181164 535.988868,2.7726455 L565.365492,2.7726455 L565.365492,136.819392 L534.267161,136.819392 C528.779221,116.877672 522.64564,97.4691534 516.727273,77.9539947 C515.435993,96.0828307 516.512059,119.650317 516.189239,136.819392 L486.705009,136.819392 C487.027829,92.3504233 485.951763,46.2818519 487.243043,2.7726455 L516.081633,2.7726455 L516.189239,2.7726455 Z" id="Shape" fill="#000000"></path>
                        <path d="M-1.42108547e-14,233.328783 L-1.42108547e-14,216.47963 C0.860853432,191.41918 7.10204082,172.437222 23.2430427,160.386878 C55.6326531,136.17955 126.007421,138.845556 153.985158,166.572011 C169.910946,182.354762 168.189239,207.415212 168.081633,237.807672 C144.730983,237.487751 119.766234,238.554153 97.3840445,237.274471 C95.1243043,222.131561 102.011132,201.016799 92.864564,194.618386 C88.7755102,191.845741 79.7365492,193.018783 76.4007421,196.32463 C69.1910946,203.469524 69.9443414,226.50381 74.6790353,236.74127 C79.4137291,246.97873 94.5862709,254.123624 106.423006,261.375159 C118.25974,268.626693 129.128015,274.491905 137.521336,282.703201 L17.5398887,282.703201 C6.6716141,271.186058 1.61410019,254.016984 -1.42108547e-14,233.328783 L-1.42108547e-14,233.328783 Z" id="Shape" fill="#D2202F"></path>
                        <path d="M361.128015,255.723228 C351.55102,253.803704 341.974026,251.88418 332.827458,249.538095 C323.03525,257.00291 313.565863,264.894286 303.988868,272.572381 C296.886827,272.25246 291.721707,273.958704 284.727273,273.745423 L284.727273,231.62254 C284.727273,215.306587 287.632653,185.020767 267.187384,194.085185 C257.395176,198.457434 260.408163,220.105397 260.408163,234.501825 L260.408163,282.703201 L183.361781,282.703201 C185.406308,237.487751 179.165121,195.258228 200.90167,171.050899 C215.536178,154.734947 236.949907,144.924048 266.541744,144.177566 C298.608534,143.324444 325.294991,152.388862 342.404453,170.517698 C359.513915,188.646534 361.773655,217.865952 361.128015,255.723228 L361.128015,255.723228 Z" id="Shape" fill="#D2202F"></path>
                        <path d="M564.827458,149.722857 C551.914657,196.217989 534.159555,242.713122 520.170686,289.954735 C478.419295,281.850079 437.959184,272.25246 396.745826,263.614603 C383.617811,225.544048 369.844156,188.219974 356.608534,150.362698 L433.54731,150.362698 C443.016698,182.034841 454.961039,211.46754 465.29128,242.393201 C475.083488,212.640582 482.831169,180.968439 491.87013,150.362698 C515.974026,149.936138 541.584416,151.10918 564.827458,149.722857 L564.827458,149.722857 Z" id="Shape" fill="#D2202F"></path>
                        <path d="M579.03154,441.383836 L498.649351,441.383836 C487.960421,410.244894 477.020408,379.390326 465.829314,348.820132 C455.821892,379.105952 446.782931,410.244894 437.528757,441.383836 L313.565863,441.383836 C310.983302,434.558862 308.831169,427.413968 306.248609,420.588995 C298.070501,435.945185 281.283859,447.355688 258.686456,447.462328 C225.651206,447.675608 201.439703,429.440132 190.786642,403.739841 C179.272727,375.906746 185.836735,338.156111 184.007421,299.978915 C209.294991,300.298836 236.089054,299.232434 260.408163,300.512116 L260.408163,351.592778 C260.408163,370.254815 255.350649,404.699603 277.948052,397.554709 C291.829314,393.18246 285.910946,362.363439 287.525046,345.407646 L272.244898,345.407646 C270.953618,334.317063 272.029685,318.001111 271.706865,307.870291 C284.296846,308.830053 293.012987,306.803889 302.805195,309.576534 C308.077922,311.069497 313.027829,316.721429 317.54731,320.240556 C322.06679,323.759683 327.877551,330.158095 332.289425,330.904577 C341.220779,332.290899 350.25974,324.932725 361.128015,325.252646 L361.128015,435.198704 C374.57885,396.488307 386.415584,356.284947 399.005566,316.828069 C438.174397,309.363254 477.773655,300.192196 515.543599,292.727381 C516.189239,292.620741 517.157699,291.874259 517.80334,292.19418 C521.461967,293.580503 524.044527,304.564444 526.304267,310.109735 C543.413729,352.55254 562.998145,399.794153 579.03154,441.383836 L579.03154,441.383836 Z" id="Shape" fill="#D2202F"></path>
                        <path d="M39.0612245,300.618757 C62.4118738,299.658995 99.2133581,300.085556 127.944341,300.085556 C137.413729,300.085556 150.111317,298.059392 156.782931,300.085556 C163.454545,302.11172 167.758813,315.655026 169.80334,322.48 C177.120594,346.900608 178.089054,397.234788 165.821892,416.110106 C137.628942,459.725952 32.2820037,457.486508 10.2226345,409.924974 C0.645640074,389.450053 3.65862709,367.482169 2.25974026,336.983069 L73.6029685,336.983069 C77.0463822,352.125979 62.5194805,405.766005 91.6808905,397.554709 C106.530612,393.395741 104.486085,357.67127 97.3840445,344.234603 C92.541744,335.276825 79.8441558,328.345212 70.2671614,321.840159 C58.6456401,314.055423 48.2077922,307.017169 39.0612245,300.618757 L39.0612245,300.618757 Z" id="Shape" fill="#D2202F"></path>
                    </g>
                </g>
            </g>
        </g>
    </g>
</svg>