<?xml version="1.0" encoding="UTF-8" standalone="no"?>
<svg width="585px" height="487px" viewBox="0 0 585 487" version="1.1" xmlns="http://www.w3.org/2000/svg" xmlns:xlink="http://www.w3.org/1999/xlink">
    <!-- Generator: Sketch 3.8.3 (29802) - http://www.bohemiancoding.com/sketch -->
    <title>Barbell Logo</title>
    <desc>Created with Sketch.</desc>
    <defs></defs>
    <g id="Welcome" stroke="none" stroke-width="1" fill="none" fill-rule="evenodd">
        <g id="Desktop-HD" transform="translate(-68.000000, -4767.000000)" fill="#FFFFFF">
            <g id="Section-7" transform="translate(0.000000, 4696.000000)">
                <g id="Group-4">
                    <g id="Barbell-Logo" transform="translate(68.000000, 70.000000)">
                        <path d="M56.83,114.07 L73.83,98.63 C74.8345112,97.7143605 74.9104822,96.1591881 74,95.15 L63.7,83.77 C63.2607854,83.2828196 62.6451941,82.9912237 61.99,82.96 C61.335745,82.9319713 60.6966121,83.1617719 60.21,83.6 L13.01,126.45 C12.0054888,127.36564 11.9295178,128.920812 12.84,129.93 L23.14,141.28 C24.0556395,142.284511 25.6108119,142.360482 26.62,141.45 L43.7,125.94 L93.37,180.65 C93.8092146,181.13718 94.4248059,181.428776 95.08,181.46 L95.2,181.46 C95.8136213,181.460269 96.4053737,181.232124 96.86,180.82 L106.32,172.23 C107.310898,171.313193 107.377838,169.769122 106.47,168.77 L56.83,114.07 Z" id="Shape"></path>
                        <path d="M191.79,114.36 L164.41,93.98 C166.906164,89.6531657 168.265129,84.7643296 168.36,79.77 C168.59936,73.2702485 167.097561,66.8245985 164.01,61.1 C160.240106,53.5661025 153.886976,47.638881 146.11,44.4 C138.25,41.16 130.74,41.33 123.95,44.91 L90.14,62.71 C88.949569,63.3576983 88.5033442,64.843627 89.14,66.04 L131.85,147.18 C132.497698,148.370431 133.983627,148.816656 135.18,148.18 L146.38,142.28 C147.575024,141.63604 148.022548,140.145784 147.38,138.95 L134.31,114.13 L149.85,105.95 L175.85,125.16 C176.609374,125.722431 177.623799,125.800164 178.46,125.36 L191.46,118.54 C192.217211,118.147397 192.718284,117.391905 192.785413,116.541612 C192.852541,115.691318 192.476225,114.866558 191.79,114.36 L191.79,114.36 Z M141.28,62.71 C144.356756,63.974506 146.866861,66.3175072 148.34,69.3 C149.999111,72.2337375 150.532374,75.6715027 149.84,78.97 C149.425784,81.7088974 147.753061,84.0958586 145.32,85.42 L124.83,96.07 L112.97,73.54 L133.39,62.77 C135.863549,61.5075808 138.787538,61.4853452 141.28,62.71 L141.28,62.71 Z" id="Shape"></path>
                        <path d="M191.23,20.77 C191.032641,20.1456657 190.594521,19.6257745 190.012665,19.3254619 C189.430809,19.0251493 188.753235,18.9691983 188.13,19.17 L176.07,23.05 C175.445666,23.2473589 174.925775,23.6854794 174.625462,24.2673352 C174.325149,24.8491909 174.269198,25.5267645 174.47,26.15 L202.31,113.51 C202.636101,114.533257 203.586038,115.22853 204.66,115.23 C204.914731,115.229395 205.167797,115.188904 205.41,115.11 L217.47,111.27 C218.094334,111.072641 218.614225,110.634521 218.914538,110.052665 C219.214851,109.470809 219.270802,108.793235 219.07,108.17 L191.23,20.77 Z" id="Shape"></path>
                        <path d="M283.9,3.92 C283.820192,3.26648689 283.482785,2.67187876 282.962697,2.26819991 C282.442608,1.86452106 281.782882,1.68518113 281.13,1.77 L268.47,3.48 C267.120708,3.66129528 266.17252,4.90020125 266.35,6.25 L273.42,59.25 C274.259783,64.5091159 273.119621,69.8928161 270.22,74.36 C267.56,78.67 264.08,81.06 259.57,81.66 C255.06,82.26 251.03,80.88 247.25,77.4 C243.40396,73.8020996 240.994749,68.9303771 240.47,63.69 L233.4,10.69 C233.218705,9.34070846 231.979799,8.3925205 230.63,8.57 L218.08,10.24 C216.730708,10.4212953 215.78252,11.6602012 215.96,13.01 L223.03,66.01 C224.49,76.93 229.03,86.01 236.57,93.14 C243.16,99.06 250.42,102.06 258.14,102.06 C259.524652,102.057702 260.907648,101.964166 262.28,101.78 C271.65,100.53 279.28,95.45 284.95,86.66 C290.44,77.95 292.47,67.95 291.01,56.93 L283.9,3.92 Z" id="Shape"></path>
                        <path d="M395.52,11.77 C394.603357,11.2818249 393.478885,11.4218837 392.71,12.12 L350.66,50.29 L320.66,2.15 C320.104858,1.26817095 319.056024,0.829581275 318.038398,1.05372799 C317.020772,1.27787471 316.253271,2.11653816 316.12,3.15 L303.54,93.97 C303.355923,95.3166108 304.294364,96.5589282 305.64,96.75 L318.18,98.49 C318.827285,98.5811552 319.484235,98.4109434 320.005819,98.0169413 C320.527403,97.6229391 320.870728,97.0375476 320.96,96.39 L327.57,48.77 L345.06,76.85 C345.448242,77.4725307 346.09314,77.8902486 346.82,77.99 C347.545153,78.0845526 348.275484,77.85815 348.82,77.37 L373.17,55.11 L366.58,102.65 C366.488845,103.297285 366.659057,103.954235 367.053059,104.475819 C367.447061,104.997403 368.032452,105.340728 368.68,105.43 L381.47,107.23 L381.81,107.23 C383.041936,107.231119 384.084741,106.320802 384.25,105.1 L396.83,14.28 C396.966818,13.2507108 396.44263,12.2463507 395.52,11.77 L395.52,11.77 Z" id="Shape"></path>
                        <path d="M478.47,79.5 C482.03031,71.8179885 482.711709,63.112406 480.39,54.97 C478.01,46.78 473.22,41.07 466.16,37.97 L431.16,22.68 C429.911805,22.1348328 428.457866,22.7029872 427.91,23.95 L391.21,107.95 C390.664833,109.198195 391.232987,110.652134 392.48,111.2 L404.08,116.27 C405.328195,116.815167 406.782134,116.247013 407.33,115 L418.56,89.29 L439.7,98.53 C446.7,101.6 454.18,101.29 461.8,97.53 C469.318602,93.6865264 475.226767,87.2963521 478.47,79.5 L478.47,79.5 Z M458.05,56.5 C460.583112,57.6392233 462.434459,59.9015699 463.05,62.61 C463.977294,65.8492038 463.692898,69.3152735 462.25,72.36 C460.998984,75.4428829 458.666599,77.9637077 455.69,79.45 C453.286693,80.84393 450.367482,81.0254546 447.81,79.94 L426.63,70.77 L436.87,47.32 L458.05,56.5 Z" id="Shape"></path>
                        <path d="M571.81,107.77 C571.729034,107.121872 571.394647,106.532199 570.88,106.13 L560.83,98.25 C559.757698,97.4136542 558.211066,97.6013956 557.37,98.67 L535.37,126.78 L509.18,106.26 L531.18,78.15 C531.584862,77.6343105 531.768087,76.978815 531.689306,76.327937 C531.610526,75.677059 531.276203,75.0842062 530.76,74.68 L520.76,66.87 C519.687698,66.0336542 518.141066,66.2213956 517.3,67.29 L460.77,139.49 C460.365138,140.00569 460.181913,140.661185 460.260694,141.312063 C460.339474,141.962941 460.673797,142.555794 461.19,142.96 L471.19,150.77 C471.70569,151.174862 472.361185,151.358087 473.012063,151.279306 C473.662941,151.200526 474.255794,150.866203 474.66,150.35 L496.66,122.24 L522.83,142.77 L500.83,170.88 C499.993654,171.952302 500.181396,173.498934 501.25,174.34 L511.3,182.22 C512.372302,183.056346 513.918934,182.868604 514.76,181.8 L571.32,109.63 C571.726905,109.101166 571.903541,108.430672 571.81,107.77 L571.81,107.77 Z" id="Shape"></path>
                        <path d="M493.36,440.13 L493.36,384.38 L514.57,384.38 C517.73,384.38 519.26,385.97 519.26,389.24 L519.26,405.92 C519.26,408.56 518.41,411.52 516.94,411.92 L517.47,411.92 C519.06,412 519.86,415.68 519.86,417.5 L519.86,433.26 C519.86,438.66 518.36,440.13 512.86,440.13 L493.36,440.13 L493.36,440.13 Z M500.36,434.51 L509,434.51 C510.026534,434.60695 511.042819,434.241017 511.771918,433.511918 C512.501017,432.782819 512.86695,431.766534 512.77,430.74 L512.77,419.42 C512.857487,418.245956 512.423326,417.092991 511.583178,416.268258 C510.74303,415.443526 509.582222,415.030788 508.41,415.14 L500.41,415.14 L500.41,434.5 L500.36,434.51 Z M500.36,410.95 L508.57,410.95 C509.656348,410.970502 510.702709,410.540335 511.460519,409.761685 C512.218329,408.983035 512.619959,407.925392 512.57,406.84 L512.57,393.69 C512.639559,392.707513 512.285873,391.742141 511.598062,391.037135 C510.910251,390.332128 509.953905,389.954717 508.97,390 L500.33,390 L500.33,411 L500.36,410.95 Z" id="Shape"></path>
                        <path d="M198.06,440.13 L198.06,384.38 L219.27,384.38 C222.43,384.38 223.96,385.97 223.96,389.24 L223.96,405.92 C223.96,408.56 223.11,411.52 221.64,411.92 L222.16,411.92 C223.74,412 224.55,415.68 224.55,417.5 L224.55,433.26 C224.55,438.66 223.05,440.13 217.55,440.13 L198.06,440.13 L198.06,440.13 Z M205.06,434.51 L213.69,434.51 C214.712489,434.608772 215.726001,434.2481 216.456228,433.5256 C217.186456,432.8031 217.55789,431.793481 217.47,430.77 L217.47,419.42 C217.557487,418.245956 217.123326,417.092991 216.283178,416.268258 C215.44303,415.443526 214.282222,415.030788 213.11,415.14 L205.11,415.14 L205.11,434.5 L205.06,434.51 Z M205.06,410.95 L213.27,410.95 C214.356348,410.970502 215.402709,410.540335 216.160519,409.761685 C216.918329,408.983035 217.319959,407.925392 217.27,406.84 L217.27,393.69 C217.339825,392.705693 216.984824,391.7386 216.294753,391.033236 C215.604682,390.327873 214.645601,389.951763 213.66,390 L205.03,390 L205.03,411 L205.06,410.95 Z" id="Shape"></path>
                        <path d="M64.18,440.13 L64.18,384.38 L85.39,384.38 C88.55,384.38 90.08,385.97 90.08,389.24 L90.08,405.92 C90.08,408.56 89.23,411.52 87.76,411.92 L88.28,411.92 C89.86,412 90.67,415.68 90.67,417.5 L90.67,433.26 C90.67,438.66 89.17,440.13 83.67,440.13 L64.18,440.13 L64.18,440.13 Z M71.18,434.51 L79.81,434.51 C80.8365336,434.60695 81.8528191,434.241017 82.581918,433.511918 C83.3110169,432.782819 83.6769499,431.766534 83.58,430.74 L83.58,419.42 C83.6674874,418.245956 83.2333259,417.092991 82.3931777,416.268258 C81.5530295,415.443526 80.3922225,415.030788 79.22,415.14 L71.22,415.14 L71.22,434.5 L71.18,434.51 Z M71.18,410.95 L79.47,410.95 C80.5563481,410.970502 81.6027087,410.540335 82.3605191,409.761685 C83.1183294,408.983035 83.5199587,407.925392 83.47,406.84 L83.47,393.69 C83.5398253,392.705693 83.1848238,391.7386 82.4947528,391.033236 C81.8046818,390.327873 80.8456007,389.951763 79.86,390 L71.23,390 L71.23,411 L71.18,410.95 Z" id="Shape"></path>
                        <path d="M128.97,440.13 L127.88,427.93 L115.22,427.93 L114.13,440.13 L107.08,440.13 L117.15,384.39 L125.94,384.39 L136.01,440.13 L128.97,440.13 L128.97,440.13 Z M115.88,422.13 L127.22,422.13 L122.93,391.93 L120.27,391.93 L115.88,422.13 Z" id="Shape"></path>
                        <path d="M172.24,440.13 L166.37,420.77 L160.37,420.77 L160.37,440.13 L153.24,440.13 L153.24,384.38 L173.78,384.38 C177.72,384.38 179.48,386.03 179.48,389.74 L179.48,417.9 C179.510052,418.678839 179.208198,419.433849 178.649491,419.977301 C178.090784,420.520753 177.327709,420.801596 176.55,420.75 L173.07,420.75 L179.47,440.13 L172.24,440.13 L172.24,440.13 Z M160.4,415.99 L168.87,415.99 C169.883241,416.061841 170.876865,415.684806 171.58739,414.958878 C172.297914,414.232949 172.653553,413.231467 172.56,412.22 L172.56,393.77 C172.616858,392.767812 172.249168,391.787992 171.547027,391.070629 C170.844886,390.353265 169.873176,389.964647 168.87,390 L160.4,390 L160.4,416 L160.4,415.99 Z" id="Shape"></path>
                        <polygon id="Shape" points="243.04 440.13 243.04 384.38 262.08 384.38 263.24 390.67 250.5 390.67 250.5 410.12 260.56 410.12 260.56 415.57 250.5 415.57 250.5 433.84 262.74 433.84 261.57 440.13"></polygon>
                        <polygon id="Shape" points="281.35 440.13 281.35 384.38 288.81 384.38 288.81 433.84 300.54 433.84 299.38 440.13"></polygon>
                        <polygon id="Shape" points="318.23 440.13 318.23 384.38 325.69 384.38 325.69 433.84 337.42 433.84 336.25 440.13"></polygon>
                        <path d="M380.93,440.13 C375.47,440.13 373.93,438.65 373.93,433.26 L373.93,389.33 C373.93,386.23 375.65,384.39 378.54,384.39 L392.47,384.39 L393.64,390.68 L385.01,390.68 C384.026095,390.634717 383.069749,391.012128 382.381938,391.717135 C381.694127,392.422141 381.340441,393.387513 381.41,394.37 L381.41,430.16 C381.340441,431.142487 381.694127,432.107859 382.381938,432.812865 C383.069749,433.517872 384.026095,433.895283 385.01,433.85 L393.62,433.85 L392.47,440.13 L380.97,440.13 L380.93,440.13 Z" id="Shape"></path>
                        <polygon id="Shape" points="411.77 440.13 411.77 384.38 419.23 384.38 419.23 433.84 430.96 433.84 429.8 440.13"></polygon>
                        <path d="M455.61,440.13 C450.15,440.13 448.61,438.65 448.61,433.26 L448.61,384.38 L455.99,384.38 L455.99,430.65 C455.87514,431.674516 456.220446,432.697228 456.932833,433.442435 C457.645219,434.187641 458.651352,434.57863 459.68,434.51 L463.96,434.51 C464.987666,434.575034 465.9916,434.182922 466.703148,433.438592 C467.414696,432.694263 467.761224,431.673698 467.65,430.65 L467.65,384.38 L475.02,384.38 L475.02,433.25 C475.02,438.65 473.53,440.12 468.02,440.12 L455.61,440.12 L455.61,440.13 Z" id="Shape"></path>
                        <polygon id="Shape" points="210.15 487.37 210.15 457.21 220.45 457.21 221.08 460.61 214.19 460.61 214.19 471.13 219.63 471.13 219.63 474.08 214.19 474.08 214.19 483.96 220.81 483.96 220.18 487.37"></polygon>
                        <path d="M232.27,487.36 L231.61,483.96 L237.04,483.96 C237.597173,484.015194 238.151024,483.826973 238.559193,483.443716 C238.967362,483.060458 239.190044,482.519542 239.17,481.96 L239.17,475.96 C239.17,473.65 237.29,473.65 236.59,473.65 L233.19,473.65 C231.55,473.65 230.88,473.44 230.88,471.29 L230.88,460.11 C230.88,458.11 231.83,457.21 233.96,457.21 L241.9,457.21 L242.53,460.61 L236.73,460.61 C236.153111,460.557162 235.581653,460.757056 235.163483,461.157963 C234.745312,461.558869 234.521517,462.121397 234.55,462.7 L234.55,468.7 C234.51284,469.324601 234.754811,469.933479 235.210562,470.362195 C235.666314,470.790911 236.288835,470.99524 236.91,470.92 L241.04,470.92 C242.36,470.92 242.94,471.21 242.94,472.92 L242.94,483.77 C242.94,486.69 242.22,487.4 239.27,487.4 L232.27,487.4 L232.27,487.36 Z" id="Shape"></path>
                        <polygon id="Shape" points="255.94 487.37 255.94 460.61 251.98 460.61 252.94 457.21 263.02 457.21 263.92 460.61 259.94 460.61 259.94 487.37"></polygon>
                        <path d="M272.41,487.77 C271.836476,487.783467 271.281768,487.565016 270.871435,487.164094 C270.461103,486.763173 270.229842,486.213682 270.23,485.64 C270.174892,484.827747 270.576973,484.052468 271.272651,483.629593 C271.968329,483.206718 272.841671,483.206718 273.537349,483.629593 C274.233027,484.052468 274.635108,484.827747 274.58,485.64 C274.580101,486.21191 274.350208,486.759835 273.942062,487.160458 C273.533916,487.56108 272.98181,487.78074 272.41,487.77 L272.41,487.77 Z" id="Shape"></path>
                        <path d="M294.76,487.36 L294.76,476.89 C294.76,475.1 295.15,474.21 296.26,473.5 L296.26,473.5 L302.49,468.73 C303.128699,468.344723 303.510724,467.645617 303.49,466.9 L303.49,462.59 C303.501685,462.060543 303.29302,461.55 302.913836,461.180296 C302.534652,460.810592 302.018992,460.614917 301.49,460.64 L295.17,460.64 L295.8,457.24 L304.64,457.24 C305.343719,457.20205 306.028071,457.477929 306.508722,457.993326 C306.989374,458.508724 307.216894,459.210636 307.13,459.91 L307.13,468.3 C307.13,469.41 306.95,469.86 305.74,470.66 L305.74,470.66 L299.52,475.66 C298.932056,476.091291 298.604179,476.79227 298.65,477.52 L298.65,484 L306.3,484 L305.64,487.4 L294.76,487.4 L294.76,487.36 Z" id="Shape"></path>
                        <path d="M320.19,487.36 C317.64,487.36 317.11,485.63 317.11,484.19 L317.11,460.39 C317.11,458.94 317.65,457.22 320.19,457.22 L328.26,457.22 C330.81,457.22 331.34,458.95 331.34,460.39 L331.34,484.19 C331.34,485.64 330.8,487.36 328.26,487.36 L320.19,487.36 L320.19,487.36 Z M322.96,460.25 C322.418509,460.210844 321.886732,460.408949 321.50284,460.79284 C321.118949,461.176732 320.920844,461.708509 320.96,462.25 L320.96,482.25 C320.913834,482.793276 321.10967,483.329252 321.495209,483.714791 C321.880748,484.10033 322.416724,484.296166 322.96,484.25 L325.36,484.25 C325.903276,484.296166 326.439252,484.10033 326.824791,483.714791 C327.21033,483.329252 327.406166,482.793276 327.36,482.25 L327.36,462.25 C327.399156,461.708509 327.201051,461.176732 326.81716,460.79284 C326.433268,460.408949 325.901491,460.210844 325.36,460.25 L322.87,460.25 L322.96,460.25 Z" id="Shape"></path>
                        <polygon id="Shape" points="341.32 487.37 341.32 483.96 343.45 483.96 343.45 460.61 341.38 460.61 342.74 457.21 347.49 457.21 347.49 483.96 349.71 483.96 349.71 487.37"></polygon>
                        <path d="M368.3,487.36 L368.3,481.36 L358.3,481.36 L358.3,475.55 L365.64,457.23 L365.64,457.23 L372.08,457.23 L372.08,478.9 L373.89,478.9 L373.89,481.39 L372.08,481.39 L372.08,487.39 L368.32,487.39 L368.3,487.36 Z M361.86,475.36 L361.86,478.85 L368.3,478.85 L368.3,464.85 L365.65,464.4 L361.86,475.36 Z" id="Shape"></path>
                        <path d="M295.64,146.08 C259.22,179.51 212.49,184.08 199.72,184.67 C199.39,193.99 198.72,221.9 201.24,247.92 L201.24,247.92 C201.34,248.94 201.443333,249.96 201.55,250.98 L201.55,251.3 C201.656667,252.286667 201.77,253.27 201.89,254.25 L201.89,254.64 C202.01,255.62 202.133333,256.596667 202.26,257.57 L202.26,257.87 C202.393333,258.883333 202.536667,259.883333 202.69,260.87 L202.69,260.87 C203.003333,262.97 203.336667,265.023333 203.69,267.03 L203.69,267.03 C203.87,268.016667 204.056667,268.99 204.25,269.95 L204.25,270.05 C204.443333,271.01 204.646667,271.956667 204.86,272.89 L204.86,272.89 C205.700468,276.725593 206.786029,280.503345 208.11,284.2 C220.36,317.52 237.97,340.55 295.47,366.34 C352.97,340.55 370.58,317.52 382.83,284.2 C384.449052,279.633819 385.729189,274.954464 386.66,270.2 L386.66,270.12 C387.026667,268.333333 387.36,266.503333 387.66,264.63 L387.66,264.55 C387.813333,263.636667 387.963333,262.713333 388.11,261.78 L388.11,261.59 C388.39,259.75 388.65,257.886667 388.89,256 L388.89,255.65 C389.003333,254.75 389.11,253.846667 389.21,252.94 L389.21,252.51 C389.316667,251.59 389.416667,250.663333 389.51,249.73 L389.51,249.73 C392.23,223.2 391.51,194.18 391.22,184.64 C378.78,184.06 332.06,179.51 295.64,146.08 L295.64,146.08 Z M353.12,226.18 L350.76,226.18 C350.354396,222.372692 349.443035,218.636449 348.05,215.07 C346.943266,212.276763 345.236363,209.760789 343.05,207.7 C340.911101,205.775495 338.353634,204.375222 335.58,203.61 C332.243731,202.704481 328.796511,202.273579 325.34,202.33 L305.82,202.33 L305.82,308.38 C305.82,316.913333 306.74,322.246667 308.58,324.38 C311.106667,327.246667 315.106667,328.68 320.58,328.68 L325.39,328.68 L325.39,332.47 L266.47,332.47 L266.47,328.68 L271.47,328.68 C277.343333,328.68 281.506667,326.906667 283.96,323.36 C285.46,321.246667 286.21,316.263333 286.21,308.41 L286.21,202.32 L269.47,202.32 C265.762431,202.273291 262.058896,202.581361 258.41,203.24 C255.504599,203.747517 252.762092,204.940507 250.41,206.72 C248.054832,208.658634 246.225332,211.158721 245.09,213.99 C243.528483,217.895058 242.496006,221.991336 242.02,226.17 L238.13,226.17 L238.13,193.62 L353.13,193.62 L353.13,226.17 L353.12,226.18 Z" id="Shape"></path>
                        <path d="M97.47,217.08 C97.1021545,214.478254 94.7439514,212.632319 92.13,212.9 L75.32,214.77 C74.0871674,214.900361 72.9616259,215.530275 72.205764,216.512895 C71.4499021,217.495516 71.1297709,218.744976 71.32,219.97 L87.8,329.61 C87.9827785,330.855927 88.6538239,331.977915 89.6650485,332.72836 C90.6762731,333.478805 91.9445524,333.796019 93.19,333.61 L108.03,331.36 C110.625022,330.953593 112.424915,328.555214 112.09,325.95 L97.47,217.08 Z" id="Shape"></path>
                        <path d="M139.23,256.48 L140.98,274.77 C141.091655,276.009133 141.704771,277.14884 142.677212,277.924904 C143.649654,278.700969 144.89697,279.045996 146.13,278.88 C147.36303,278.714004 148.98,278.51 154.13,277.88 L155.89,277.67 C159.11,277.31 163.04,276.88 167.64,276.42 L167.64,276.31 C170.866667,275.956667 174.08,275.623333 177.28,275.31 L177.41,275.47 L177.66,275.47 L177.32,275.33 C184.25,274.63 191.11,274.04 197.92,273.48 C196.212962,265.268222 194.984227,256.964244 194.24,248.61 C175.03,250.61 144.82,255.61 139.23,256.48 Z" id="Shape"></path>
                        <path d="M127.18,213.89 C126.851446,211.285698 124.525317,209.405373 121.91,209.63 L105.02,211.21 C103.782989,211.318647 102.644813,211.930333 101.871622,212.90202 C101.098431,213.873707 100.758023,215.120193 100.93,216.35 L115.71,326.23 C116.066999,328.819305 118.44889,330.633653 121.04,330.29 L135.92,328.29 C138.516876,327.922227 140.350896,325.556607 140.06,322.95 L127.18,213.89 Z" id="Shape"></path>
                        <path d="M40.73,254.15 C40.2198459,251.576171 37.7587581,249.872001 35.17,250.3 L18.47,253.19 C17.2492835,253.393132 16.1665267,254.091078 15.4774652,255.118991 C14.7884037,256.146905 14.5541383,257.413637 14.83,258.62 L27.23,314.62 C27.8076864,317.173407 30.3283631,318.790025 32.89,318.25 L47.56,315.08 C50.1208811,314.505489 51.7715552,312.011823 51.3,309.43 L40.73,254.15 Z" id="Shape"></path>
                        <path d="M66.09,222.71 C65.6359899,220.137765 63.240611,218.376457 60.65,218.71 L43.84,220.97 C42.6102457,221.130795 41.5001942,221.788754 40.7688218,222.790376 C40.0374493,223.791997 39.7487219,225.049678 39.97,226.27 L59.17,335.42 C59.6319581,337.99237 62.0852167,339.70831 64.66,339.26 L79.47,336.65 C82.0482422,336.177196 83.7842931,333.741411 83.39,331.15 L66.09,222.71 Z" id="Shape"></path>
                        <path d="M15.81,280.1 C15.643078,278.865815 14.9828534,277.752057 13.9802191,277.013274 C12.9775849,276.274491 11.7182381,275.973828 10.49,276.18 L3.91,277.27 C2.67509265,277.472321 1.57344786,278.162808 0.853059027,279.186023 C0.132670191,280.209239 -0.145920875,281.479191 0.08,282.71 L2.83,297.81 C3.04834803,299.033649 3.75674703,300.115137 4.79125732,300.804181 C5.82576761,301.493225 7.09672465,301.730105 8.31,301.46 L13.82,300.26 C16.4109855,299.656837 18.133902,297.201681 17.82,294.56 L15.81,280.1 Z" id="Shape"></path>
                        <path d="M565.57,254.01 L548.86,251.12 C546.270004,250.686475 543.805417,252.393068 543.3,254.97 L532.74,310.23 C532.268445,312.811823 533.919119,315.305489 536.48,315.88 L551.15,319.05 C553.712687,319.595772 556.237099,317.976759 556.81,315.42 L569.21,259.42 C569.479631,258.216535 569.242368,256.955146 568.553897,255.931897 C567.865427,254.908649 566.786372,254.21364 565.57,254.01 L565.57,254.01 Z" id="Shape"></path>
                        <path d="M508.71,215.57 L491.85,213.77 C489.236049,213.502319 486.877845,215.348254 486.51,217.95 L471.95,326.77 C471.615085,329.375214 473.414978,331.773593 476.01,332.18 L490.85,334.43 C493.442419,334.811616 495.854197,333.021799 496.24,330.43 L512.72,220.77 C512.910183,219.543413 512.588726,218.292518 511.83074,217.309593 C511.072753,216.326668 509.944644,215.697826 508.71,215.57 L508.71,215.57 Z" id="Shape"></path>
                        <path d="M580.13,278.09 L573.55,277 C572.321762,276.793828 571.062415,277.094491 570.059781,277.833274 C569.057147,278.572057 568.396922,279.685815 568.23,280.92 L566.23,295.39 C565.916098,298.031681 567.639015,300.486837 570.23,301.09 L575.75,302.29 C576.963275,302.560105 578.234232,302.323225 579.268743,301.634181 C580.303253,300.945137 581.011652,299.863649 581.23,298.64 L583.98,283.54 C584.205711,282.305057 583.924707,281.031246 583.200369,280.005886 C582.476032,278.980525 581.36937,278.289977 580.13,278.09 L580.13,278.09 Z" id="Shape"></path>
                        <path d="M540.2,221.77 L523.39,219.51 C520.799389,219.176457 518.40401,220.937765 517.95,223.51 L500.67,331.97 C500.275707,334.561411 502.011758,336.997196 504.59,337.47 L519.37,340.09 C521.946071,340.544112 524.40305,338.82557 524.86,336.25 L544.07,227.05 C544.285221,225.832718 543.993636,224.580356 543.26286,223.58333 C542.532085,222.586303 541.425603,221.931223 540.2,221.77 L540.2,221.77 Z" id="Shape"></path>
                        <path d="M407.42,251.42 L403.33,251.02 L396.82,250.41 C396.062385,258.135747 394.880602,265.814 393.28,273.41 C406.63,274.46 416.71,275.5 422.77,276.19 C429.63,277.19 436.39,278.26 443.01,279.49 L446.55,260.02 C446.762596,258.814112 446.475726,257.573613 445.755294,256.583491 C445.034862,255.593369 413,251.966667 407.42,251.42 Z" id="Shape"></path>
                        <path d="M479.01,212.03 L462.12,210.45 C459.504683,210.225373 457.178554,212.105698 456.85,214.71 L443.98,323.77 C443.689104,326.376607 445.523124,328.742227 448.12,329.11 L463,331.11 C465.592633,331.4594 467.978136,329.6423 468.33,327.05 L483.1,217.17 C483.271977,215.940193 482.931569,214.693707 482.158378,213.72202 C481.385187,212.750333 480.247011,212.138647 479.01,212.03 L479.01,212.03 Z" id="Shape"></path>
                    </g>
                </g>
            </g>
        </g>
    </g>
</svg>